<svg id="dates" xmlns="http://www.w3.org/2000/svg" xmlns:xlink="http://www.w3.org/1999/xlink" viewBox="0 0 30.5 30.44"><defs><linearGradient id="linear-gradient" x1="1765.5" y1="533.12" x2="1796" y2="533.12" gradientUnits="userSpaceOnUse"><stop offset="0" stop-color="#009fe3"/><stop offset="0.04" stop-color="#0da6e6"/><stop offset="0.13" stop-color="#22b2ea"/><stop offset="0.23" stop-color="#31bbed"/><stop offset="0.34" stop-color="#39bfee"/><stop offset="0.52" stop-color="#3cc1ef"/><stop offset="0.63" stop-color="#37beee"/><stop offset="0.77" stop-color="#28b6eb"/><stop offset="0.92" stop-color="#0fa8e6"/><stop offset="1" stop-color="#009fe3"/></linearGradient><linearGradient id="linear-gradient-2" x1="1773.17" y1="519.78" x2="1788.33" y2="519.78" xlink:href="#linear-gradient"/><linearGradient id="linear-gradient-3" x1="1773.17" y1="519.78" x2="1776.91" y2="519.78" xlink:href="#linear-gradient"/><linearGradient id="linear-gradient-4" x1="1784.59" y1="519.78" x2="1788.33" y2="519.78" xlink:href="#linear-gradient"/></defs><title>calender form-icon</title><g id="calender_icon" data-name="calender icon"><path d="M1796,519.78v26.69h-30.5q0-13.34,0-26.69h5.67c0,0.77,0,1.35,0,1.94a3.86,3.86,0,1,0,7.73-.05c0-.58,0-1.16,0-1.75h3.71c0,0.68,0,1.27,0,1.86a3.86,3.86,0,0,0,7.72.05c0-.65,0-1.31,0-2.06H1796ZM1775,535v-3.77h-3.78V535H1775Zm7.62,0v-3.77h-3.78V535h3.78Zm3.86-3.79V535h3.75v-3.75h-3.75Zm-15.27,11.4H1775v-3.75h-3.75v3.75Zm11.4,0v-3.76h-3.76v3.76h3.76Zm3.84-.54,3.26-3.24h-3.26v3.24Z" transform="translate(-1765.5 -516.02)" fill="url(#linear-gradient)"/><path d="M1773.18,519.72c0,0.63,0,1.27,0,1.9a1.91,1.91,0,0,0,1.88,1.9,1.89,1.89,0,0,0,1.8-1.86c0.05-1.26.05-2.53,0-3.8a1.87,1.87,0,0,0-1.82-1.84,1.91,1.91,0,0,0-1.86,1.92C1773.16,518.54,1773.18,519.13,1773.18,519.72Zm15.13,0.08c0-.67,0-1.35,0-2a1.85,1.85,0,0,0-1.89-1.76,1.78,1.78,0,0,0-1.77,1.75,37.37,37.37,0,0,0,0,3.91,1.87,1.87,0,0,0,1.83,1.83,1.9,1.9,0,0,0,1.84-1.82C1788.36,521.08,1788.32,520.44,1788.32,519.81Z" transform="translate(-1765.5 -516.02)" fill="url(#linear-gradient-2)"/><path d="M1773.18,519.72c0-.59,0-1.19,0-1.78a1.91,1.91,0,0,1,1.86-1.92,1.87,1.87,0,0,1,1.82,1.84c0.05,1.26.05,2.53,0,3.8a1.89,1.89,0,0,1-1.8,1.86,1.91,1.91,0,0,1-1.88-1.9C1773.15,521,1773.18,520.36,1773.18,519.72Z" transform="translate(-1765.5 -516.02)" fill="url(#linear-gradient-3)"/><path d="M1788.32,519.81c0,0.63,0,1.27,0,1.9a1.9,1.9,0,0,1-1.84,1.82,1.87,1.87,0,0,1-1.83-1.83,37.37,37.37,0,0,1,0-3.91,1.78,1.78,0,0,1,1.77-1.75,1.85,1.85,0,0,1,1.89,1.76C1788.36,518.46,1788.32,519.14,1788.32,519.81Z" transform="translate(-1765.5 -516.02)" fill="url(#linear-gradient-4)"/></g></svg>