<svg xmlns="http://www.w3.org/2000/svg" viewBox="0 0 836.25 777.81"><defs><style>.cls-1{isolation:isolate;}.cls-2{fill:#008300;}.cls-3{fill:#029ea7;}.cls-4{fill:#02d3de;}.cls-5{fill:#00a822;}.cls-6{fill:#004800;}.cls-7{fill:#338033;}.cls-8{fill:#99df99;}.cls-9{fill:#28b96a;}.cls-10,.cls-31{fill:#1ba1df;}.cls-11{fill:#35dce5;}.cls-12{fill:#0cf;}.cls-13{fill:#0092df;}.cls-14{fill:#1479a7;}.cls-15{fill:#76c7ec;}.cls-16{fill:#0e5170;}.cls-17{fill:#006000;}.cls-18{fill:#33be33;}.cls-19{fill:#a4d9f2;}.cls-20{fill:#49b4e5;}.cls-21{fill:#67e5eb;}.cls-22{fill:#9aedf2;}.cls-23{fill:#ccf6f8;}.cls-24{fill:#99bf99;}.cls-25{fill:#66a066;}.cls-26{fill:#cb2f60;}.cls-27{fill:#66ce66;}.cls-28{fill:#00ae00;}.cls-29{fill:#e0dcaf;opacity:0.4;mix-blend-mode:multiply;}.cls-30{opacity:0.52;mix-blend-mode:overlay;}.cls-31{opacity:0.3;}</style></defs><title>main screen image</title><g class="cls-1"><g id="opening_screem_image_group" data-name="opening screem image group"><g id="main_screen_image" data-name="main screen image"><path class="cls-2" d="M1129.5,825.76H1081c-2.17-2.75-4.38-5.61-6.57-8.54h51.36C1127,820.14,1128.24,823,1129.5,825.76Z" transform="translate(-404.12 -145.06)"/><path class="cls-3" d="M1138.53,842.32h-44.1c-2-2.49-4.41-5.38-7-8.54h46A99.12,99.12,0,0,0,1138.53,842.32Z" transform="translate(-404.12 -145.06)"/><path class="cls-4" d="M1152.19,857.6h-46.81c-1.92-3.08-3.83-6-5.69-8.54h43.83A58.05,58.05,0,0,0,1152.19,857.6Z" transform="translate(-404.12 -145.06)"/><path class="cls-5" d="M1191,903.13h-63.79c-0.83-2.88-1.6-5.79-2.64-8.54h81.92C1201.58,898.24,1196.25,901.45,1191,903.13Z" transform="translate(-404.12 -145.06)"/><path class="cls-6" d="M1164.45,912.6c-2.87,1.43-5.05,3.69-7.31,5.73h-21.55a21.29,21.29,0,0,1-6.16-8.54h40.87C1168.43,910.63,1166.54,911.55,1164.45,912.6Z" transform="translate(-404.12 -145.06)"/><path class="cls-6" d="M1013.48,146.08l19.66-.2a74.09,74.09,0,0,1,10.62,2.51A50,50,0,0,1,1057,154l-61-.59L635.56,150Z" transform="translate(-404.12 -145.06)"/><path class="cls-7" d="M986.45,161.75l79.52-.82a37,37,0,0,1,6.33,8.49l-91.36-.88L643.35,165.3Z" transform="translate(-404.12 -145.06)"/><path class="cls-8" d="M975.73,177l99-.92a11.43,11.43,0,0,1-1.39,8.51l-100.83-.88-369.34-3.22Z" transform="translate(-404.12 -145.06)"/><path class="cls-9" d="M969.17,192.39l101-1c0.21,1.88.58,4.61,1.23,8.38l-104.09-1-316.69-3.05Z" transform="translate(-404.12 -145.06)"/><path class="cls-10" d="M965.47,207.63l107.22-1.11c0.65,3.39,1,6.14.5,8.43l-108.43-1-314.13-3Z" transform="translate(-404.12 -145.06)"/><path class="cls-11" d="M964.89,222.86l105.23-1.09a41.44,41.44,0,0,0,1.88,8.35l-106.16-1-313.11-3Z" transform="translate(-404.12 -145.06)"/><path class="cls-3" d="M968.57,237.92l107.13-1.11c3.18,5-.21,8.35-7.47,8.35l-0.18.14-96.21-.93-325.46-3.14Z" transform="translate(-404.12 -145.06)"/><path class="cls-5" d="M978.55,252.89l83.68-.86a5.75,5.75,0,0,0-.68,3.15,2.18,2.18,0,0,1-2.22,2.22,2.68,2.68,0,0,1,.13,3.18l-83.94-.81L632,256.46Z" transform="translate(-404.12 -145.06)"/><path class="cls-12" d="M950,268.18l106.34-1c0.3,3.4-.21,7.92-6,8.56l-3.44,0c-11-1.16-15.4-6.62-19.82-1.64-0.42.47-.87,1-1.34,1.46l-91.83-.79-363.56-3.11Z" transform="translate(-404.12 -145.06)"/><path class="cls-10" d="M915.48,284.88l104.38-1.08a14.15,14.15,0,0,0-.58,8.57L897.9,291.21l-308-3Z" transform="translate(-404.12 -145.06)"/><path class="cls-13" d="M861.7,300.76l160.36-1.66h0a84.87,84.87,0,0,0,4.81,7.26v1.31L848,306l-253.43-2.44Z" transform="translate(-404.12 -145.06)"/><path class="cls-14" d="M828.28,316.4l204.69-2a95.14,95.14,0,0,1,6,8.5l-218.82-2-224-2.09Z" transform="translate(-404.12 -145.06)"/><path class="cls-15" d="M810.63,331.87l231.67-2.39a39.12,39.12,0,0,1,2,6.35c0.16,0.74.32,1.49,0.47,2.24L810.4,335.81l-197.2-1.9Z" transform="translate(-404.12 -145.06)"/><path class="cls-16" d="M814,347l51.88-.52q0.56,2.55,1.2,5.07l-50.49-.47-210.5-2Z" transform="translate(-404.12 -145.06)"/><path class="cls-16" d="M1046.39,353.24L917.22,352c-0.21-2.28-.4-4.32-0.56-6.06l129.22-1.3A69.79,69.79,0,0,1,1046.39,353.24Z" transform="translate(-404.12 -145.06)"/><path class="cls-17" d="M821,362.7l49.22-.48q0.68,2.09,1.4,4.14l-49.07-.44-171.88-1.56Z" transform="translate(-404.12 -145.06)"/><path class="cls-17" d="M1079.91,364.75s5.56-3.89,6.12,0a21.44,21.44,0,0,1,4.75-4.68l5.38-.05a36.24,36.24,0,0,1,11.54,8.48l-31.81-.29A12.13,12.13,0,0,1,1079.91,364.75Z" transform="translate(-404.12 -145.06)"/><path class="cls-17" d="M1044.74,367.93l-126.18-1.14c-0.15-1.73-.3-3.41-0.45-5L1046,360.51A70.31,70.31,0,0,1,1044.74,367.93Z" transform="translate(-404.12 -145.06)"/><path class="cls-18" d="M829.4,377.4L875.7,377q1,2.45,2.11,4.84l-45.48-.35-259.19-2Z" transform="translate(-404.12 -145.06)"/><path class="cls-18" d="M1112.07,375.07a22.13,22.13,0,0,1,2,8.61l-44.39-.34a56.33,56.33,0,0,1,2.31-7.94Z" transform="translate(-404.12 -145.06)"/><path class="cls-18" d="M1039.78,383.1l-119.89-.92c-0.16-1.86-.31-3.71-0.47-5.52l123.18-1Q1041.42,379.24,1039.78,383.1Z" transform="translate(-404.12 -145.06)"/><path class="cls-8" d="M841,392.52l41.78-.35c0.87,1.67,1.75,3.32,2.63,4.93l-40.83-.32-267.14-2.07Z" transform="translate(-404.12 -145.06)"/><path class="cls-8" d="M1067.44,390.64l46-.38a30.38,30.38,0,0,1-1.25,4s-0.67,1.93-3.73,4.61l-52.6-.41A24,24,0,0,0,1067.44,390.64Z" transform="translate(-404.12 -145.06)"/><path class="cls-8" d="M1033.75,395.34a12.83,12.83,0,0,0-1.53,2.9l-111.1-.86q-0.22-2.75-.43-5.52l115.45-1C1035.38,392.35,1034.6,393.83,1033.75,395.34Z" transform="translate(-404.12 -145.06)"/><path class="cls-19" d="M854,407.75l37.5-.37c1,1.62,2,3.2,3,4.73l-37.08-.34-213.63-2Z" transform="translate(-404.12 -145.06)"/><path class="cls-19" d="M1087.7,408.69s-5.59,0-11.36,5.1l-154.13-1.41c-0.12-1.73-.24-3.49-0.37-5.28l175.48-1.72A82.14,82.14,0,0,1,1087.7,408.69Z" transform="translate(-404.12 -145.06)"/><path class="cls-20" d="M867.67,424l35.06-.36q2.18,2.87,4.23,5.37l-35.64-.34-235.65-2.27Z" transform="translate(-404.12 -145.06)"/><path class="cls-20" d="M1068,422a125,125,0,0,1-12.39,8.46l-132.4-1.27c-0.08-1.8-.17-3.71-0.28-5.73L1068,422v0Z" transform="translate(-404.12 -145.06)"/><path class="cls-10" d="M878.57,438.89l36.86-.38c3.84,3.84,6.53,5.78,7.27,5.4,0.44-.22.65-2.21,0.68-5.49l119-1.23v0.74c-5.45,2.86-11,5.52-16.12,7.73l-144.59-1.39-271.58-2.62Z" transform="translate(-404.12 -145.06)"/><path class="cls-14" d="M882.94,453.87l136-1.4a42.11,42.11,0,0,0-3,8.57l-131.65-1.27-296.08-2.85Z" transform="translate(-404.12 -145.06)"/><path class="cls-16" d="M888.14,469l127.28-1.31c0.09,2,.07,5-0.07,8.61l-123.61-1.19-307.88-3Z" transform="translate(-404.12 -145.06)"/><path class="cls-3" d="M898.58,484.07l116.43-1.2c-0.17,2.71-.38,5.61-0.64,8.6l-100.17-1-330.34-3.18Z" transform="translate(-404.12 -145.06)"/><path class="cls-11" d="M908.67,499.17l105.07-1.08c-0.3,2.85-.63,5.73-1,8.57l-109.79-1.06-319.08-3.07Z" transform="translate(-404.12 -145.06)"/><path class="cls-21" d="M896.49,514.39l115.28-1.09c-0.47,3-1,5.87-1.54,8.53l-117.68-1-347-3.07Z" transform="translate(-404.12 -145.06)"/><path class="cls-22" d="M887.93,529.71l120.73-1.25c-0.88,3.49-1.6,6.27-2.1,8.59l-121.15-1.17-307.92-3Z" transform="translate(-404.12 -145.06)"/><path class="cls-23" d="M884,545l121.75-1.26c0.14,2.91,1.24,5.24,3.63,8.58l-124.84-1.2-307.06-3Z" transform="translate(-404.12 -145.06)"/><path class="cls-24" d="M887.93,561.56l126.44-1.3a17.49,17.49,0,0,1,1,8.6l-125.89-1.21L583.87,564.7Z" transform="translate(-404.12 -145.06)"/><path class="cls-25" d="M884.17,576.88L1016,575.59a47.83,47.83,0,0,0,6.18,8.52l-143-1.3L567.37,580Z" transform="translate(-404.12 -145.06)"/><path class="cls-7" d="M870.48,592.17L1028,590.76c2.45,2.86,4.5,5.4,5.23,7,0.18,0.41.44,0.9,0.67,1.36v0.17l-168.21-1.41-329.08-2.76Z" transform="translate(-404.12 -145.06)"/><path class="cls-17" d="M858.19,607.84L1037.76,606c1.68,2.83,3.43,5.79,4.81,8.51l-187.69-1.81-241.44-2.33Z" transform="translate(-404.12 -145.06)"/><path class="cls-16" d="M848.46,623.22l197.26-2a68.26,68.26,0,0,0,6.53,8.55l-206.22-2-225.56-2.17Z" transform="translate(-404.12 -145.06)"/><path class="cls-14" d="M843.34,638.22l108.47-.94c-1.46,1.83-3.12,4.11-4.9,6.7l-100.82-.81L548,640.77Z" transform="translate(-404.12 -145.06)"/><path class="cls-14" d="M1059.89,639a33.42,33.42,0,0,1,3,6l-97-.78a6.9,6.9,0,0,1-.5-1.29,21,21,0,0,0-2.53-5.66l95.13-.82C1058.71,637.31,1059.38,638.19,1059.89,639Z" transform="translate(-404.12 -145.06)"/><path class="cls-26" d="M1068.29,659.6a8.21,8.21,0,0,1-.61-1.18c-0.8-2-1.59-4.41-2.44-6.92" transform="translate(-404.12 -145.06)"/><path class="cls-10" d="M853.47,653.16l88-.69c-1.32,2.17-2.62,4.42-3.87,6.68l-82.07-.6-357.17-2.61Z" transform="translate(-404.12 -145.06)"/><path class="cls-10" d="M1067.68,658.42a8.21,8.21,0,0,0,.61,1.18v0.5l-89.83-.65-0.33-.47c-1.22-1.71-3.61-4.16-6-6.75l93.11-.73C1066.08,654,1066.88,656.43,1067.68,658.42Z" transform="translate(-404.12 -145.06)"/><path class="cls-15" d="M852,668.76l80.7-.71a41.2,41.2,0,0,1-4.66,6l-79-.65-271.63-2.23Z" transform="translate(-404.12 -145.06)"/><path class="cls-15" d="M1081.81,675.33l-92.51-.76c-1.94-2.39-3.71-4.77-5.26-7l90.07-.79C1076.49,669.46,1079.21,672.4,1081.81,675.33Z" transform="translate(-404.12 -145.06)"/><path class="cls-26" d="M824.91,683.91l8.17-.06A56.88,56.88,0,0,1,824.91,683.91Z" transform="translate(-404.12 -145.06)"/><path class="cls-19" d="M764.82,684.37l60.1-.46a56.88,56.88,0,0,0,8.17-.06l84.77-.65A25.93,25.93,0,0,0,912.5,689l-0.12.2L751.6,688.07,508,686.33Z" transform="translate(-404.12 -145.06)"/><path class="cls-19" d="M1091.59,689c0.16,0.49.28,1,.42,1.48l-82.44-.59c-4.47-1.06-2.47,2-11.41-5.9-0.52-.45-1-0.93-1.53-1.41l90.68-.69A27.41,27.41,0,0,1,1091.59,689Z" transform="translate(-404.12 -145.06)"/><path class="cls-22" d="M725.92,698L908,696.74c-1.2,2.08-2.45,4.19-3.7,6.15l-186.37-1.18-281.44-1.78Z" transform="translate(-404.12 -145.06)"/><path class="cls-22" d="M1093.59,704.08l-63.75-.4c-3.34-2.63-6.9-5.37-10.09-7.7l73.36-.5A55.21,55.21,0,0,1,1093.59,704.08Z" transform="translate(-404.12 -145.06)"/><path class="cls-11" d="M637.78,713.88l28.47-.2,26.64-.18,202.78-1.41a43.52,43.52,0,0,0-4.83,5.95l-210.57-1.36-6.57,0-36.94-.24L449,715.18Z" transform="translate(-404.12 -145.06)"/><path class="cls-11" d="M1092.71,717.38c-0.06.64-.09,1.3-0.09,2l-49.73-.32c-0.09-1.67-.19-3.36-0.23-5,0,0-1.38-1.15-3.57-2.94l54.21-.38C1093.13,712.86,1092.94,715.06,1092.71,717.38Z" transform="translate(-404.12 -145.06)"/><path class="cls-3" d="M634.08,728.95l249.26-1.61a27.22,27.22,0,0,1-7.74,5.92L633.54,731.8l-229.42-1.38Z" transform="translate(-404.12 -145.06)"/><path class="cls-3" d="M1095.68,734.58l-51.49-.31q-0.47-4-.8-8l49.93-.32A68.44,68.44,0,0,0,1095.68,734.58Z" transform="translate(-404.12 -145.06)"/><path class="cls-16" d="M627.53,744.37L730,743.68c-7.72,1.23-14.46,2.41-20.33,3.65l-83.86-.53-185.05-1.17Z" transform="translate(-404.12 -145.06)"/><path class="cls-16" d="M1100.76,747.49v2.31l-54.4-.34q-0.67-4-1.23-7.91l53-.36C1099,743.38,1099.9,745.49,1100.76,747.49Z" transform="translate(-404.12 -145.06)"/><path class="cls-10" d="M616.92,758.83l62.84-.41c-1.87,1-3.8,2.09-5.75,3.19l-58.84-.35-193.28-1.17Z" transform="translate(-404.12 -145.06)"/><path class="cls-10" d="M1107.17,764.23l-58-.35q-0.86-3.91-1.6-7.84l56.7-.37C1105,757.69,1106,760.63,1107.17,764.23Z" transform="translate(-404.12 -145.06)"/><path class="cls-15" d="M605.75,775.26l48.08-.35q-1.27,1.06-2.45,2.16l-46.48-.32L498.35,776Z" transform="translate(-404.12 -145.06)"/><path class="cls-15" d="M1112.35,780.19l-59.25-.4Q1052,776,1051,772l58.52-.42C1110.43,774.29,1111.36,777.17,1112.35,780.19Z" transform="translate(-404.12 -145.06)"/><path class="cls-27" d="M600,789.5l41.48-.28-1.8,2.46-40.07-.25L449,790.5Z" transform="translate(-404.12 -145.06)"/><path class="cls-8" d="M1117.25,794.66l-58-.36c-1.46-2.67-2.76-5.29-3.84-7.82l58.86-.39C1115.25,788.87,1116.23,791.74,1117.25,794.66Z" transform="translate(-404.12 -145.06)"/><path class="cls-7" d="M503.81,806.44l96.26-.69c0.13,0.45.27,0.9,0.42,1.34Z" transform="translate(-404.12 -145.06)"/><path class="cls-28" d="M627.14,807.26l-26.65-.18c-0.15-.43-0.29-0.88-0.42-1.34l28.62-.21Q627.92,806.42,627.14,807.26Z" transform="translate(-404.12 -145.06)"/><path class="cls-18" d="M1119.88,802c1,2.86,2.13,5.73,3.24,8.58l-53.76-.36c-1.82-2.59-3.59-5.21-5.25-7.82Z" transform="translate(-404.12 -145.06)"/><path class="cls-21" d="M1180,864.21h57.43a48.43,48.43,0,0,1-5.15,5.56s-1,1.11-2.75,3H1114.09c-1.52-2.83-3.11-5.71-4.75-8.54h55.19A26.3,26.3,0,0,0,1180,864.21Z" transform="translate(-404.12 -145.06)"/><path class="cls-27" d="M1220.07,882.56c-1.64,1.64-3.55,3.48-5.64,5.38h-92.75c-1.18-2.57-2.58-5.46-4.14-8.54H1223.2Q1221.72,880.91,1220.07,882.56Z" transform="translate(-404.12 -145.06)"/><path class="cls-4" d="M1237.31,854.2c1.75,0.65,2.88,1.75,3,3.4h-32.15C1221.85,855,1234.79,853.25,1237.31,854.2Z" transform="translate(-404.12 -145.06)"/><path class="cls-29" d="M751.53,688.09l160.77,1.24c-1.07,1.75-2.26,3.84-3.51,6L728.22,697A241.79,241.79,0,0,1,751.53,688.09Z" transform="translate(-404.12 -145.06)"/><path class="cls-29" d="M875.45,376.4l-46.49.34a99.87,99.87,0,0,1-6.18-10.29l49,0.4Q873.49,371.73,875.45,376.4Z" transform="translate(-404.12 -145.06)"/><path class="cls-29" d="M1068.79,388.66s0.24-2,.85-4.95l44.49,0.33a24.65,24.65,0,0,1-.62,5.83l-45.82.4C1068.08,389.75,1068.45,389.23,1068.79,388.66Z" transform="translate(-404.12 -145.06)"/><path class="cls-29" d="M870.79,734.62c-12.79,1.11-62.85-2.23-105.68,3.89-10.46,1.49-19.76,2.82-28.07,4.08l-109,1c2.64-3.89,4.46-7.23,5.27-10.68,0-.12.05-0.25,0.08-0.37l238.08,1.94C871.23,734.55,871,734.6,870.79,734.62Z" transform="translate(-404.12 -145.06)"/><path class="cls-29" d="M869.94,361.47l-49.33.4a79.15,79.15,0,0,1-3.73-10.33l50.3,0.36Q868.43,356.75,869.94,361.47Z" transform="translate(-404.12 -145.06)"/><path class="cls-29" d="M917.24,352.25l129.15,0.91A65.8,65.8,0,0,1,1046,360l-128,1C917.76,357.86,917.49,354.9,917.24,352.25Z" transform="translate(-404.12 -145.06)"/><path class="cls-29" d="M916,339.35c-13.9,5.56-50.61,5-50.61,5,0.11,0.56.25,1.11,0.37,1.66l-52.11.37a27.5,27.5,0,0,1-3.25-10.21l234.34,1.75c0.45,2.2.84,4.47,1.13,6.82l-129.26.92C916.25,341.69,916,339.35,916,339.35Z" transform="translate(-404.12 -145.06)"/><path class="cls-29" d="M708.93,706.25c2.35-1.24,5-2.58,7.83-4l186.6,2c-1.88,2.84-3.73,5.18-5.35,6.33L695.5,712.49A137.41,137.41,0,0,0,708.93,706.25Z" transform="translate(-404.12 -145.06)"/><path class="cls-29" d="M1075.65,368.52l32.3,0.26a26.61,26.61,0,0,1,3.95,5.89l-39.69.29A28,28,0,0,1,1075.65,368.52Z" transform="translate(-404.12 -145.06)"/><path class="cls-29" d="M636.55,717.12l253.26,2.32c-1.56,2.11-3.29,4.35-5.19,6.49l-250.37,2A84.81,84.81,0,0,1,636.55,717.12Z" transform="translate(-404.12 -145.06)"/><path class="cls-29" d="M685.57,755.2c-1.69,1-3.5,2-5.35,3l-63.22.56c3.25-4.47,6.08-8.18,8.44-11.43l80.94,0.78C697.42,750.11,690.61,752.35,685.57,755.2Z" transform="translate(-404.12 -145.06)"/><path class="cls-29" d="M885.55,535.48l121.13,1a25.74,25.74,0,0,0-.89,7.59L884,545.07A30.7,30.7,0,0,1,885.55,535.48Z" transform="translate(-404.12 -145.06)"/><path class="cls-29" d="M882.67,391.87l-41.86.36c-3-3.57-5.65-7-8.1-10.25L878,382.32Q880.27,387.24,882.67,391.87Z" transform="translate(-404.12 -145.06)"/><path class="cls-29" d="M884.51,550.89l124.56,1c0.55,0.79,1.16,1.63,1.87,2.56a23.83,23.83,0,0,1,3.58,6.21l-126.61.91A41.86,41.86,0,0,1,884.51,550.89Z" transform="translate(-404.12 -145.06)"/><path class="cls-29" d="M892.64,520.65l117.66,0.86c-0.33,1.59-.67,3.11-1,4.54-0.26,1-.51,2-0.75,3l-120.75,1C889.17,527,890.8,523.84,892.64,520.65Z" transform="translate(-404.12 -145.06)"/><path class="cls-29" d="M903.15,505.33l109.63,0.9c-0.33,2.52-.68,5-1.06,7.4l-115.29.84A110.16,110.16,0,0,1,903.15,505.33Z" transform="translate(-404.12 -145.06)"/><path class="cls-29" d="M889.5,567.45l125.85,1a19.07,19.07,0,0,0,0,5.4,8.06,8.06,0,0,0,.76,1.94l-131.91,1C886.3,573.79,888.63,570,889.5,567.45Z" transform="translate(-404.12 -145.06)"/><path class="cls-29" d="M807.94,681.78c5.85,1,10.76,1.66,14.93,2l-57.39.45C779.65,680.88,794.38,679.41,807.94,681.78Z" transform="translate(-404.12 -145.06)"/><path class="cls-29" d="M854.71,613l187.79,1.4a37.53,37.53,0,0,1,1.82,4,16.8,16.8,0,0,0,1.41,2.82l-196.91,1.39C850.45,619.71,852.41,616.46,854.71,613Z" transform="translate(-404.12 -145.06)"/><path class="cls-29" d="M921.13,397.57l111,1c-0.64,2.15-.17,4.43,5.52,3.48,5.15-.86,11.46-1.43,17.3-3.29l53.1,0.46a41.57,41.57,0,0,1-10.3,6L921.8,406.55C921.59,403.61,921.37,400.6,921.13,397.57Z" transform="translate(-404.12 -145.06)"/><path class="cls-29" d="M865.57,598l168.3,1.12c1,2,2.42,4.37,3.94,6.93l-179.33,1.34C860.62,604.4,863,601.25,865.57,598Z" transform="translate(-404.12 -145.06)"/><path class="cls-29" d="M879.28,582.79l142.7,1c2,2.38,4.18,4.82,6.09,7.06l-157.38,1C873.36,588.88,876.22,585.83,879.28,582.79Z" transform="translate(-404.12 -145.06)"/><path class="cls-29" d="M922.25,413l153.68,1.19a26.16,26.16,0,0,0-2.69,2.88,34.31,34.31,0,0,1-5.28,5l-145.09,1C922.69,419.9,922.49,416.51,922.25,413Z" transform="translate(-404.12 -145.06)"/><path class="cls-29" d="M645.53,783.56L641.58,789l-41.58.39a48.59,48.59,0,0,1,4.77-12.35l46.12,0.5A44.39,44.39,0,0,0,645.53,783.56Z" transform="translate(-404.12 -145.06)"/><path class="cls-29" d="M923.18,429.49l132.22,1.08c-3.78,2.3-7.86,4.61-12,6.81l-120,.87C923.39,435.92,923.32,432.95,923.18,429.49Z" transform="translate(-404.12 -145.06)"/><path class="cls-29" d="M654.78,774.15l-48.66.53c0.34-.56.67-1.13,1-1.69,2.51-3.86,4.86-7.29,7.06-10.39l57.18,0.51A127.84,127.84,0,0,0,654.78,774.15Z" transform="translate(-404.12 -145.06)"/><path class="cls-29" d="M884.36,459.94L1016,460.81a22.47,22.47,0,0,0-.61,6.27q0,0.43,0,.93l-127.3.95A54.7,54.7,0,0,1,884.36,459.94Z" transform="translate(-404.12 -145.06)"/><path class="cls-29" d="M896.37,481.55c-1.41-1.84-3-4-4.68-6.54l123.67,0.92c-0.08,2.2-.2,4.65-0.37,7.26L898.52,484A23.32,23.32,0,0,1,896.37,481.55Z" transform="translate(-404.12 -145.06)"/><path class="cls-29" d="M915.28,493.23a13.89,13.89,0,0,0-1.11-2.78l100.22,0.71c-0.21,2.4-.44,4.87-0.71,7.35l-105.23.86A69.75,69.75,0,0,1,915.28,493.23Z" transform="translate(-404.12 -145.06)"/><path class="cls-29" d="M609.93,817.49c-4-1.11-7.52-4.87-9.43-10.39l26.5,0.31C620.84,814.06,614.64,818.8,609.93,817.49Z" transform="translate(-404.12 -145.06)"/><path class="cls-29" d="M629,805.12l-29,.35a32,32,0,0,1-.61-12.72l39.2,0.36C635.62,797.12,632.36,801.32,629,805.12Z" transform="translate(-404.12 -145.06)"/><path class="cls-29" d="M882.47,446.51a7.53,7.53,0,0,0-.68-1.92l144.54,1c-1.65.71-3.26,1.38-4.81,2a48.32,48.32,0,0,0-2.69,5.1l-135.92.9A37.74,37.74,0,0,1,882.47,446.51Z" transform="translate(-404.12 -145.06)"/><path class="cls-29" d="M902.37,423.2l-35.16.25c-2.33-2.9-5-6.13-8.1-9.76L858,412.46,895,412.74C897.47,416.53,900,420,902.37,423.2Z" transform="translate(-404.12 -145.06)"/><path class="cls-29" d="M967.22,199.12l104.22,0.78,0.13,0.77c0.36,2.07.75,3.94,1.08,5.66l-107.09.76C966,204.52,966.53,201.85,967.22,199.12Z" transform="translate(-404.12 -145.06)"/><path class="cls-29" d="M1132.2,831.39c0.46,0.92.94,1.78,1.42,2.67l-45.73.26c-2.33-2.86-4.84-6-7.4-9.21l48.86,0.31C1130.28,827.46,1131.23,829.47,1132.2,831.39Z" transform="translate(-404.12 -145.06)"/><path class="cls-29" d="M980.72,168.85l91.62,0.66a23.55,23.55,0,0,1,2.33,6.39l-98.7.66A79,79,0,0,1,980.72,168.85Z" transform="translate(-404.12 -145.06)"/><path class="cls-29" d="M972.3,184.07l100.9,0.67a11.12,11.12,0,0,1-3.3,3.14s0,1,.26,3.29l-100.83.75C970.2,189.3,971.18,186.68,972.3,184.07Z" transform="translate(-404.12 -145.06)"/><path class="cls-29" d="M964.74,214.36l108.4,0.77a7.6,7.6,0,0,1-3.24,4.46s0,0.78.19,2l-105.24.86A58,58,0,0,1,964.74,214.36Z" transform="translate(-404.12 -145.06)"/><path class="cls-29" d="M1143.66,849.21l-43.68.25c-0.77-1.07-1.53-2.1-2.27-3-1.06-1.36-2.34-2.94-3.77-4.69l44.39,0.3A79.31,79.31,0,0,0,1143.66,849.21Z" transform="translate(-404.12 -145.06)"/><path class="cls-29" d="M972.09,244.78l95.76,0.7c-1.09.9-4.25,3.67-5.64,6.61l-83.73.73A41,41,0,0,1,972.09,244.78Z" transform="translate(-404.12 -145.06)"/><path class="cls-29" d="M1125.93,817.56l-51,.32c-2-2.71-4.05-5.47-6-8.26l54,0.4C1123.89,812.57,1124.9,815.09,1125.93,817.56Z" transform="translate(-404.12 -145.06)"/><path class="cls-29" d="M1114.68,787.17l-58.77.34a55.5,55.5,0,0,1-2.69-7.28c-0.09-.33-0.17-0.67-0.26-1l59.22,0.41C1113,782.06,1113.8,784.58,1114.68,787.17Z" transform="translate(-404.12 -145.06)"/><path class="cls-29" d="M965.9,229.4L1072,230.27a19,19,0,0,0,2.86,5.44c0.27,0.34.52,0.68,0.73,1l-107.24.78A50.45,50.45,0,0,1,965.9,229.4Z" transform="translate(-404.12 -145.06)"/><path class="cls-29" d="M1120.08,802.55l-55.62.42c-1.79-2.79-3.46-5.57-5-8.3l57.88,0.34C1118.24,797.5,1119.15,800,1120.08,802.55Z" transform="translate(-404.12 -145.06)"/><path class="cls-29" d="M1032.73,145.82L1014,146A55,55,0,0,1,1032.73,145.82Z" transform="translate(-404.12 -145.06)"/><path class="cls-29" d="M1206.64,894.44l-82,.46c-0.08-.22-0.15-0.44-0.24-0.66-0.69-1.78-1.67-4-2.86-6.61l92.62,0.55C1211.86,890.27,1209.32,892.42,1206.64,894.44Z" transform="translate(-404.12 -145.06)"/><path class="cls-29" d="M995.77,153.64l61.41,0.5a50.79,50.79,0,0,1,6,4.26c0.88,0.73,1.75,1.54,2.59,2.38l-79,.57A55.94,55.94,0,0,1,995.77,153.64Z" transform="translate(-404.12 -145.06)"/><path class="cls-29" d="M1207.37,857.75l33,0.19c0,1.51-.79,3.45-2.63,5.92l-57.52.29C1187,862.06,1197.32,859.69,1207.37,857.75Z" transform="translate(-404.12 -145.06)"/><path class="cls-29" d="M1141.09,921.5a20.4,20.4,0,0,1-5.92-3.49l22.15,0.15C1153.39,921.74,1149.31,924.71,1141.09,921.5Z" transform="translate(-404.12 -145.06)"/><path class="cls-29" d="M1188.93,903.7a94.37,94.37,0,0,0-19,6.26l-40.29.27a56.93,56.93,0,0,1-2.52-7.32l63.34,0.35C1189.95,903.42,1189.44,903.58,1188.93,903.7Z" transform="translate(-404.12 -145.06)"/><path class="cls-29" d="M1223.44,879.16l-105.68.64c-1.18-2.35-2.46-4.8-3.79-7.29l115.28,0.59C1227.75,874.69,1225.77,876.77,1223.44,879.16Z" transform="translate(-404.12 -145.06)"/><path class="cls-29" d="M968.67,265.19a47.11,47.11,0,0,0,6.81-5.38l84,0.73a4.33,4.33,0,0,1-1.83,1.31s-2.23-.56-1.67,2.78c0.12,0.69.27,1.63,0.36,2.65l-106.13.82C956.76,266,963.16,264.79,968.67,265.19Z" transform="translate(-404.12 -145.06)"/><path class="cls-29" d="M1164.66,864.24l-55.13.28c-1.45-2.52-2.93-5-4.42-7.35l46.86,0.27A37.41,37.41,0,0,0,1164.66,864.24Z" transform="translate(-404.12 -145.06)"/><path class="cls-29" d="M1093.82,359.19a8,8,0,0,1,1.39.43l-3.67,0A3.83,3.83,0,0,1,1093.82,359.19Z" transform="translate(-404.12 -145.06)"/><path class="cls-29" d="M1047.1,275.76l-0.49-.06,4.14,0A15,15,0,0,1,1047.1,275.76Z" transform="translate(-404.12 -145.06)"/><path class="cls-29" d="M849.13,673.39l78.94,0.68a110.46,110.46,0,0,1-10,9l-83.46.65C843.25,682.51,846.06,678.52,849.13,673.39Z" transform="translate(-404.12 -145.06)"/><path class="cls-29" d="M1109.73,772.14l-58.55.4q-1-4.11-2-8.29l58.06,0.32C1108,766.86,1108.85,769.4,1109.73,772.14Z" transform="translate(-404.12 -145.06)"/><path class="cls-29" d="M1065.23,651.47l-93.18.68c-2.58-2.79-5.14-5.73-6.25-8.08l97,0.79C1063.69,647,1064.48,649.26,1065.23,651.47Z" transform="translate(-404.12 -145.06)"/><path class="cls-29" d="M918.6,367.24l126.07,1c-0.5,2.22-1.15,4.53-1.92,6.92l-123.38.9C919.11,373,918.85,370.08,918.6,367.24Z" transform="translate(-404.12 -145.06)"/><path class="cls-29" d="M846,643.09L947,643.92c-1.76,2.58-3.61,5.43-5.45,8.45l-88.14.64C851.32,650,848.33,646.44,846,643.09Z" transform="translate(-404.12 -145.06)"/><path class="cls-29" d="M1074,666.66l-90,.78c-2.38-3.36-4.24-6.23-5.43-7.94l90.17,0.66A65.26,65.26,0,0,0,1074,666.66Z" transform="translate(-404.12 -145.06)"/><path class="cls-29" d="M645.53,708.48c8.49,0,13.39,1.22,19.09,4.3l-26.37.24C639.82,710.28,642.07,708.48,645.53,708.48Z" transform="translate(-404.12 -145.06)"/><path class="cls-29" d="M855.52,658.61l82,0.6c-1,1.78-1.92,3.57-2.81,5.33-0.6,1.2-1.24,2.3-1.91,3.35l-80.69.7C853.58,666.25,855.6,662.28,855.52,658.61Z" transform="translate(-404.12 -145.06)"/><path class="cls-29" d="M1087.17,681.73l-90.73.7a84.27,84.27,0,0,1-7.11-7.82l92.54,0.8C1083.78,677.56,1085.61,679.7,1087.17,681.73Z" transform="translate(-404.12 -145.06)"/><path class="cls-29" d="M891.14,406.79l-37.71.29c-3.1-3.6-6-7-8.71-10.18l40.82,0.35C887.38,400.58,889.26,403.75,891.14,406.79Z" transform="translate(-404.12 -145.06)"/><path class="cls-29" d="M915.24,438.32l-36.87.27c-1.57-2.44-3.75-5.56-6.77-9.51l35.62,0.29C910.2,433,912.92,436,915.24,438.32Z" transform="translate(-404.12 -145.06)"/><path class="cls-29" d="M843,634.5a54.73,54.73,0,0,1,2.83-6.31l206.37,1.46c2.07,2.41,4.14,4.73,5.76,6.72l-95.15.78c-2.09-3.3-5-5.88-7.46-3.76a30.88,30.88,0,0,0-3.48,3.85l-108.54.89A5.57,5.57,0,0,1,843,634.5Z" transform="translate(-404.12 -145.06)"/><path class="cls-29" d="M898.68,291.07l120.55,1a23.54,23.54,0,0,0,2.85,7.06l0.13,0.21-159.67,1.15A246.07,246.07,0,0,1,898.68,291.07Z" transform="translate(-404.12 -145.06)"/><path class="cls-29" d="M919.92,382.62l119.68,0.87c-1,2.28-2,4.61-3.29,7l-115.67,1C920.42,388.55,920.17,385.57,919.92,382.62Z" transform="translate(-404.12 -145.06)"/><path class="cls-29" d="M933.79,274.82l92,0.71c-2.17,2.33-4.7,5.06-6,8.6l-104.26.75C920.16,282,926.63,278.28,933.79,274.82Z" transform="translate(-404.12 -145.06)"/><path class="cls-29" d="M1103.83,754.64c0.25,0.59.52,1.32,0.82,2.15l-56.9.32q-0.8-4.08-1.48-8.15l55.27,0.33C1102.38,751.23,1103.17,753,1103.83,754.64Z" transform="translate(-404.12 -145.06)"/><path class="cls-29" d="M831.85,314.14a97.24,97.24,0,0,1,15.8-8l180,1.3c1.78,2.39,3.6,4.69,5.36,7l-203.67,1.35C830.17,315.25,831,314.72,831.85,314.14Z" transform="translate(-404.12 -145.06)"/><path class="cls-29" d="M1098.33,741.69l-53.13.32q-0.59-4.08-1-8.09l51.39,0.26C1096.38,736.71,1097.34,739.24,1098.33,741.69Z" transform="translate(-404.12 -145.06)"/><path class="cls-29" d="M1093.17,696.06l-72.74.41c-4.45-3.27-8.29-5.83-10-6.36l-0.13,0,81.82,0.63A39.08,39.08,0,0,1,1093.17,696.06Z" transform="translate(-404.12 -145.06)"/><path class="cls-29" d="M1093.25,711.27l-53.58.31c-2.55-2.09-6.45-5.25-10.62-8.53l64.55,0.44C1093.59,706,1093.46,708.56,1093.25,711.27Z" transform="translate(-404.12 -145.06)"/><path class="cls-29" d="M819.27,321.28l219.6,1.46a47,47,0,0,1,3.48,6.85l-231.62,1.73C812,326.17,815,323.67,819.27,321.28Z" transform="translate(-404.12 -145.06)"/><path class="cls-29" d="M1093.39,726.38l-50,.26q-0.35-4.11-.55-8.05l49.77,0.29A33.17,33.17,0,0,0,1093.39,726.38Z" transform="translate(-404.12 -145.06)"/><g class="cls-30"><path class="cls-31" d="M609.93,817.49c10,2.78,26.7-21.69,35.59-33.93s27.25-21.14,40-28.37,36.71-10.57,79.54-16.69,92.88-2.78,105.68-3.89,21.69-21.69,26.14-23.36S908,696.24,912.5,689s15.57-11.12,22.25-24.47,16.68-27.81,20.58-31.15,8.9,5,10,9.46,10,12.24,12.79,16.13,10.57,16.69,20,25,6.67,4.45,12.24,6.12S1042.65,714,1042.65,714c0.56,20,4.45,44.49,10.57,66.18s34.48,53.39,44.5,66.19,22.8,37.82,26.7,47.83,3.89,22.25,16.68,27.26,15.57-5,23.36-8.9a94.89,94.89,0,0,1,24.47-8.9c11.68-2.78,23.92-13.9,31.15-21.13s12.24-12.79,12.24-12.79c10-9.46,9.46-13.9,5-15.57s-41.16,5-57.29,10-34.48-6.12-47.83-32.82-24.47-67.3-28.37-76.75-12.24-26.14-11.12-37.26,1.67-20-1.11-28.37-21.69-25-23.92-30.59-4.45-14.46-7.79-19.47-13.35-14.46-15.57-20.58-8.9-15.58-11.12-20.58-16.69-18.35-17.8-23.91,2.78-10-4.45-19.47-6.12-10.57-1.67-28.37,6.68-50.06,6.12-59,6.12-19.47,6.12-19.47c18.35-7.23,45.05-22.25,51.73-30.59s14.46-8.34,14.46-8.34c21.69-6.12,24.47-14.46,24.47-14.46,8.9-22.8-15-34.48-18.35-35s-7.79,5.56-7.79,5.56c-0.56-3.89-6.12,0-6.12,0-8.9,4.45-11.12,23.92-11.12,23.92-6.67,11.12-21.13,11.68-31.15,13.35s-3.89-6.67-3.89-6.67c15-26.7,13.9-44.49,10.57-59.51s-14.46-23.36-22.25-36.71,0.56-20,5-25,8.9,0.56,20,1.67,9.46-7.79,8.9-11.12,1.67-2.78,1.67-2.78c3.89-1.67,1.67-4.45,1.67-4.45a2.18,2.18,0,0,0,2.22-2.22c-0.56-4.45,6.68-10,6.68-10,7.79,0,11.12-3.89,6.68-9.45s-5-16.13-5-16.13c5.56-3.89,3.34-9.46,1.67-18.91s-1.67-12.79-1.67-12.79c10.57-6.67,2.78-21.69-6.67-29.48a51.78,51.78,0,0,0-19.47-10c-51.17-16.13-74,30-78.42,60.07s13.91,45.05,13.91,45.05c0,5-10.57,11.68-10.57,11.68-22.8-1.67-60.63,24.47-60.63,24.47-31.7,3.89-65.63,17.24-76.2,24.47s-18.91,7.79-21.14,17.24,6.12,20,6.12,20C823,373.09,836.3,387,859.1,413.69s23.36,32.82,23.36,32.82c-0.56,15,8.34,27.81,13.9,35s7.23,3.89,12.24,4.45,6.67,7.23,6.67,7.23c-12.79,10-23.36,26.7-28.92,40s0,25.89,3.34,31.7c1.49,2.6-7.48,14.94-8.9,16.31-23.73,23-36.15,48.21-37.82,53.21s8.34,14.46,11.68,20.58-3.89,15.57-3.89,15.57c-6.12,10-7.79,17.24-42.83,11.12s-77.87,13.35-99,24.47S675,719,667.78,714.6s-12.24-6.12-22.25-6.12-10,15-12.24,24.47-11.68,17.8-26.14,40S599.92,814.71,609.93,817.49ZM865.41,344.35s36.71,0.56,50.61-5c0,0,10,102.89,6.68,104.56S877.09,401.08,865.41,344.35Z" transform="translate(-404.12 -145.06)"/></g></g></g></g></svg>