<svg xmlns="http://www.w3.org/2000/svg" viewBox="0 0 96.02 96.11"><title>Asset 2</title><g id="Layer_2" data-name="Layer 2"><g id="Layer_1-2" data-name="Layer 1"><path d="M.17,83.11C.12,58.9,0,34.69.07,10.48.08,4.49,4.53.35,10.56.08,12.37,0,14.2.16,16,.21,16,7,16,13.85,16,20.68S20.36,32,27.09,32q21,.08,41.93,0c6.45,0,10.88-4.51,11-11,.1-6.82.12-13.64.18-20.46,4.76,4.61,9.5,9.24,14.29,13.81a5,5,0,0,1,1.56,4q-.13,32.35-.19,64.7c-3.11,6.84-8.93,8.34-15.7,8l-.3-1c.06-8.47.22-16.95.14-25.42-.06-6.64-4.11-11.14-10.8-11.27q-21.18-.4-42.38,0C20.26,53.46,16.15,57.8,16,64.11c-.13,8.64.07,17.28.12,25.92l-.3,1C9.1,91.45,3.28,90,.17,83.11Z" fill="#2fa4e7"/><path d="M47.92.11,75,.06c-.08,5-.1,9.94-.26,14.91-.24,7.45-4.4,11.71-11.85,11.83Q48,27,33.06,26.79c-7.65-.12-11.72-4.51-11.86-12.32Q21.08,7.27,21,.07H27Q27,3,27,6c0,.33-.06.66-.06,1-.23,14.57-.23,14.57,14.31,14.14,5-.15,6.7-1.91,6.77-7.06,0-2.66-.05-5.32-.08-8Z" fill="#e8edef"/><path d="M21,.07q.12,7.21.24,14.41c.14,7.81,4.21,12.2,11.86,12.32q14.92.23,29.85,0c7.45-.11,11.61-4.37,11.85-11.83C74.93,10,74.95,5,75,.06c1.71.19,3.52-.53,5.15.54-.06,6.82-.08,13.64-.18,20.46C79.9,27.52,75.47,32,69,32q-21,.09-41.93,0c-6.74,0-11-4.48-11.08-11.36S16,7,16,.21Z" fill="#2a80b9"/><path d="M15.87,91.07l.3-1H79.83l.3,1q0,2.44,0,4.87H15.91Q15.89,93.5,15.87,91.07Z" fill="#bcc2c6"/><path d="M27,6Q27,3,27,.08l20.87,0q0,3,0,6Z" fill="#bcc2c6"/><path d="M15.87,91.07q0,2.44,0,4.87c-3.61.12-7.32.71-10.61-1.39A10.7,10.7,0,0,1,.17,83.11C3.28,90,9.1,91.45,15.87,91.07Z" fill="#2a80b9"/><path d="M80.1,95.94q0-2.44,0-4.87c6.77.39,12.59-1.11,15.7-8C96.2,92.81,91.84,96.36,80.1,95.94Z" fill="#2a80b9"/><path d="M79.83,90H16.17c-.06-8.64-.26-17.28-.12-25.91.1-6.31,4.21-10.65,10.75-10.77q21.18-.39,42.38,0C75.86,53.47,79.91,58,80,64.61,80.05,73.08,79.89,81.55,79.83,90ZM48,69.09c5.8,0,11.61,0,17.41,0,1.64,0,3.44.25,3.58-2.28.15-2.79-1.69-2.75-3.61-2.74q-17.41,0-34.82,0c-1.63,0-3.45-.28-3.58,2.26-.14,2.77,1.68,2.77,3.61,2.76C36.41,69.08,42.21,69.09,48,69.09Zm-.36,11H65.57c1.71,0,3.4.06,3.45-2.41S67.59,75,65.75,75q-17.66,0-35.32,0C28.71,75,27,75,27,77.44c-.06,2.84,1.93,2.59,3.75,2.6Q39.2,80.06,47.66,80Z" fill="#e8edef"/><path d="M27,6l20.93.1c0,2.66.12,5.32.08,8-.07,5.15-1.79,6.92-6.77,7.06-14.54.43-14.54.43-14.31-14.14C26.91,6.68,26.95,6.35,27,6Z" fill="#95a5a6"/><path d="M48,69.09c-5.8,0-11.61,0-17.41,0-1.93,0-3.75,0-3.61-2.76.13-2.54,2-2.26,3.58-2.26q17.41,0,34.82,0c1.92,0,3.76,0,3.61,2.74-.14,2.53-1.94,2.27-3.58,2.28C59.62,69.1,53.82,69.09,48,69.09Z" fill="#bcc2c6"/><path d="M47.66,80q-8.46,0-16.91,0c-1.83,0-3.81.24-3.75-2.6C27,75,28.71,75,30.44,75q17.66,0,35.32,0c1.83,0,3.31.25,3.26,2.62S67.28,80,65.57,80Z" fill="#bcc2c6"/></g></g></svg>