<svg id ="slil" xmlns="http://www.w3.org/2000/svg" xmlns:xlink="http://www.w3.org/1999/xlink" viewBox="0 0 1480.22 51.66">
   <defs>
      <style>.cls-1{isolation:isolate;}.cls-10,.cls-100,.cls-101,.cls-102,.cls-103,.cls-104,.cls-105,.cls-106,.cls-107,.cls-108,.cls-109,.cls-11,.cls-110,.cls-111,.cls-112,.cls-113,.cls-114,.cls-115,.cls-116,.cls-117,.cls-118,.cls-119,.cls-12,.cls-120,.cls-121,.cls-122,.cls-123,.cls-124,.cls-125,.cls-126,.cls-127,.cls-128,.cls-129,.cls-13,.cls-130,.cls-131,.cls-132,.cls-133,.cls-134,.cls-135,.cls-136,.cls-137,.cls-138,.cls-139,.cls-14,.cls-140,.cls-141,.cls-142,.cls-143,.cls-144,.cls-145,.cls-146,.cls-147,.cls-148,.cls-149,.cls-15,.cls-150,.cls-151,.cls-152,.cls-153,.cls-154,.cls-155,.cls-156,.cls-157,.cls-158,.cls-159,.cls-16,.cls-160,.cls-161,.cls-162,.cls-163,.cls-17,.cls-18,.cls-19,.cls-2,.cls-20,.cls-21,.cls-22,.cls-23,.cls-24,.cls-25,.cls-26,.cls-27,.cls-28,.cls-29,.cls-3,.cls-30,.cls-31,.cls-32,.cls-33,.cls-34,.cls-35,.cls-36,.cls-37,.cls-38,.cls-39,.cls-4,.cls-40,.cls-41,.cls-42,.cls-43,.cls-44,.cls-45,.cls-46,.cls-47,.cls-48,.cls-49,.cls-5,.cls-50,.cls-51,.cls-52,.cls-53,.cls-54,.cls-55,.cls-56,.cls-57,.cls-58,.cls-59,.cls-6,.cls-60,.cls-61,.cls-62,.cls-63,.cls-64,.cls-65,.cls-7,.cls-8,.cls-9{mix-blend-mode:multiply;}.cls-2{fill:url(#linear-gradient);}.cls-3{fill:url(#linear-gradient-2);}.cls-4{fill:url(#linear-gradient-3);}.cls-5{fill:url(#linear-gradient-4);}.cls-6{fill:url(#linear-gradient-5);}.cls-7{fill:url(#linear-gradient-6);}.cls-8{fill:url(#linear-gradient-7);}.cls-9{fill:url(#linear-gradient-8);}.cls-10{fill:url(#linear-gradient-9);}.cls-11{fill:url(#linear-gradient-10);}.cls-12{fill:url(#linear-gradient-11);}.cls-13{fill:url(#linear-gradient-12);}.cls-14{fill:url(#linear-gradient-13);}.cls-15{fill:url(#linear-gradient-14);}.cls-16{fill:url(#linear-gradient-15);}.cls-17{fill:url(#linear-gradient-16);}.cls-18{fill:url(#linear-gradient-17);}.cls-19{fill:url(#linear-gradient-18);}.cls-20{fill:url(#linear-gradient-19);}.cls-21{fill:url(#linear-gradient-20);}.cls-22{fill:url(#linear-gradient-21);}.cls-23{fill:url(#linear-gradient-22);}.cls-24{fill:url(#linear-gradient-23);}.cls-25{fill:url(#linear-gradient-24);}.cls-26{fill:url(#linear-gradient-25);}.cls-27{fill:url(#linear-gradient-26);}.cls-28{fill:url(#linear-gradient-27);}.cls-29{fill:url(#linear-gradient-28);}.cls-30{fill:url(#linear-gradient-29);}.cls-31{fill:url(#linear-gradient-30);}.cls-32{fill:url(#linear-gradient-31);}.cls-33{fill:url(#linear-gradient-32);}.cls-34{fill:url(#linear-gradient-33);}.cls-35{fill:url(#linear-gradient-34);}.cls-36{fill:url(#linear-gradient-35);}.cls-37{fill:url(#linear-gradient-36);}.cls-38{fill:url(#linear-gradient-37);}.cls-39{fill:url(#linear-gradient-38);}.cls-40{fill:url(#linear-gradient-39);}.cls-41{fill:url(#linear-gradient-40);}.cls-42{fill:url(#linear-gradient-41);}.cls-43{fill:url(#linear-gradient-42);}.cls-44{fill:url(#linear-gradient-43);}.cls-45{fill:url(#linear-gradient-44);}.cls-46{fill:url(#linear-gradient-45);}.cls-47{fill:url(#linear-gradient-46);}.cls-48{fill:url(#linear-gradient-47);}.cls-49{fill:url(#linear-gradient-48);}.cls-50{fill:url(#linear-gradient-49);}.cls-51{fill:url(#linear-gradient-50);}.cls-52{fill:url(#linear-gradient-51);}.cls-53{fill:url(#linear-gradient-52);}.cls-54{fill:url(#linear-gradient-53);}.cls-55{fill:url(#linear-gradient-54);}.cls-56{fill:url(#linear-gradient-55);}.cls-57{fill:url(#linear-gradient-56);}.cls-58{fill:url(#linear-gradient-57);}.cls-59{fill:url(#linear-gradient-58);}.cls-60{fill:url(#linear-gradient-59);}.cls-61{fill:url(#linear-gradient-60);}.cls-62{fill:url(#linear-gradient-61);}.cls-63{fill:url(#linear-gradient-62);}.cls-64{fill:url(#linear-gradient-63);}.cls-65{fill:url(#linear-gradient-64);}.cls-66{fill:#353535;}.cls-67{fill:#878787;}.cls-68{fill:url(#linear-gradient-65);}.cls-69{fill:url(#linear-gradient-66);}.cls-70{fill:url(#linear-gradient-67);}.cls-71{fill:url(#linear-gradient-68);}.cls-72{fill:url(#linear-gradient-69);}.cls-73{fill:url(#linear-gradient-70);}.cls-74{fill:url(#linear-gradient-71);}.cls-75{fill:url(#linear-gradient-72);}.cls-76{fill:url(#linear-gradient-73);}.cls-77{fill:url(#linear-gradient-74);}.cls-78{fill:url(#linear-gradient-75);}.cls-79{fill:url(#linear-gradient-76);}.cls-80{fill:url(#linear-gradient-77);}.cls-81{fill:url(#linear-gradient-78);}.cls-82{fill:url(#linear-gradient-79);}.cls-83{fill:url(#linear-gradient-80);}.cls-84{fill:url(#linear-gradient-81);}.cls-85{fill:url(#linear-gradient-82);}.cls-86{fill:url(#linear-gradient-83);}.cls-87{fill:url(#linear-gradient-84);}.cls-88{fill:url(#linear-gradient-85);}.cls-89{fill:url(#linear-gradient-86);}.cls-90{fill:url(#linear-gradient-87);}.cls-91{fill:url(#linear-gradient-88);}.cls-92{fill:url(#linear-gradient-89);}.cls-93{fill:url(#linear-gradient-90);}.cls-94{fill:url(#linear-gradient-91);}.cls-95{fill:url(#linear-gradient-92);}.cls-96{fill:url(#linear-gradient-93);}.cls-97{fill:url(#linear-gradient-94);}.cls-98{fill:url(#linear-gradient-95);}.cls-99{fill:url(#linear-gradient-96);}.cls-100{fill:url(#linear-gradient-97);}.cls-101{fill:url(#linear-gradient-98);}.cls-102{fill:url(#linear-gradient-99);}.cls-103{fill:url(#linear-gradient-100);}.cls-104{fill:url(#linear-gradient-101);}.cls-105{fill:url(#linear-gradient-102);}.cls-106{fill:url(#linear-gradient-103);}.cls-107{fill:url(#linear-gradient-104);}.cls-108{fill:url(#linear-gradient-105);}.cls-109{fill:url(#linear-gradient-106);}.cls-110{fill:url(#linear-gradient-107);}.cls-111{fill:url(#linear-gradient-108);}.cls-112{fill:url(#linear-gradient-109);}.cls-113{fill:url(#linear-gradient-110);}.cls-114{fill:url(#linear-gradient-111);}.cls-115{fill:url(#linear-gradient-112);}.cls-116{fill:url(#linear-gradient-113);}.cls-117{fill:url(#linear-gradient-114);}.cls-118{fill:url(#linear-gradient-115);}.cls-119{fill:url(#linear-gradient-116);}.cls-120{fill:url(#linear-gradient-117);}.cls-121{fill:url(#linear-gradient-118);}.cls-122{fill:url(#linear-gradient-119);}.cls-123{fill:url(#linear-gradient-120);}.cls-124{fill:url(#linear-gradient-121);}.cls-125{fill:url(#linear-gradient-122);}.cls-126{fill:url(#linear-gradient-123);}.cls-127{fill:url(#linear-gradient-124);}.cls-128{fill:url(#linear-gradient-125);}.cls-129{fill:url(#linear-gradient-126);}.cls-130{fill:url(#linear-gradient-127);}.cls-131{fill:url(#linear-gradient-128);}.cls-132{fill:url(#linear-gradient-129);}.cls-133{fill:url(#linear-gradient-130);}.cls-134{fill:url(#linear-gradient-131);}.cls-135{fill:url(#linear-gradient-132);}.cls-136{fill:url(#linear-gradient-133);}.cls-137{fill:url(#linear-gradient-134);}.cls-138{fill:url(#linear-gradient-135);}.cls-139{fill:url(#linear-gradient-136);}.cls-140{fill:url(#linear-gradient-137);}.cls-141{fill:url(#linear-gradient-138);}.cls-142{fill:url(#linear-gradient-139);}.cls-143{fill:url(#linear-gradient-140);}.cls-144{fill:url(#linear-gradient-141);}.cls-145{fill:url(#linear-gradient-142);}.cls-146{fill:url(#linear-gradient-143);}.cls-147{fill:url(#linear-gradient-144);}.cls-148{fill:url(#linear-gradient-145);}.cls-149{fill:url(#linear-gradient-146);}.cls-150{fill:url(#linear-gradient-147);}.cls-151{fill:url(#linear-gradient-148);}.cls-152{fill:url(#linear-gradient-149);}.cls-153{fill:url(#linear-gradient-150);}.cls-154{fill:url(#linear-gradient-151);}.cls-155{fill:url(#linear-gradient-152);}.cls-156{fill:url(#linear-gradient-153);}.cls-157{fill:url(#linear-gradient-154);}.cls-158{fill:url(#linear-gradient-155);}.cls-159{fill:url(#linear-gradient-156);}.cls-160{fill:url(#linear-gradient-157);}.cls-161{fill:url(#linear-gradient-158);}.cls-162{fill:url(#linear-gradient-159);}.cls-163{fill:url(#linear-gradient-160);}.cls-164{fill:url(#linear-gradient-161);}.cls-165{fill:url(#linear-gradient-162);}.cls-166{fill:url(#linear-gradient-163);}.cls-167{fill:url(#linear-gradient-164);}.cls-168{fill:url(#linear-gradient-165);}.cls-169{fill:url(#linear-gradient-166);}.cls-170{fill:url(#linear-gradient-167);}.cls-171{fill:url(#linear-gradient-168);}.cls-172{fill:url(#linear-gradient-169);}.cls-173{fill:url(#linear-gradient-170);}.cls-174{fill:url(#linear-gradient-171);}.cls-175{fill:url(#linear-gradient-172);}.cls-176{fill:url(#linear-gradient-173);}.cls-177{fill:url(#linear-gradient-174);}.cls-178{fill:url(#linear-gradient-175);}.cls-179{fill:url(#linear-gradient-176);}.cls-180{fill:url(#linear-gradient-177);}.cls-181{fill:url(#linear-gradient-178);}.cls-182{fill:url(#linear-gradient-179);}.cls-183{fill:url(#linear-gradient-180);}.cls-184{fill:url(#linear-gradient-181);}.cls-185{fill:url(#linear-gradient-182);}.cls-186{fill:url(#linear-gradient-183);}.cls-187{fill:url(#linear-gradient-184);}.cls-188{fill:url(#linear-gradient-185);}.cls-189{fill:url(#linear-gradient-186);}.cls-190{fill:url(#linear-gradient-187);}.cls-191{fill:url(#linear-gradient-188);}.cls-192{fill:url(#linear-gradient-189);}.cls-193{fill:url(#linear-gradient-190);}.cls-194{fill:url(#linear-gradient-191);}.cls-195{fill:url(#linear-gradient-192);}</style>
      <linearGradient id="linear-gradient" x1="1619.92" y1="677.3" x2="1647.14" y2="677.3" gradientTransform="translate(2130.82 -1617.27) rotate(90)" gradientUnits="userSpaceOnUse">
         <stop offset="0" stop-color="#606060"/>
         <stop offset="0.19" stop-color="#888"/>
         <stop offset="0.46" stop-color="#bbb"/>
         <stop offset="0.69" stop-color="#e0e0e0"/>
         <stop offset="0.88" stop-color="#EFF3F3"/>
         <stop offset="1" stop-color="#EFF3F3"/>
      </linearGradient>
      <linearGradient id="linear-gradient-2" x1="1619.92" y1="666.2" x2="1647.14" y2="666.2" xlink:href="#linear-gradient"/>
      <linearGradient id="linear-gradient-3" x1="1651.55" y1="676.61" x2="1668.94" y2="676.61" xlink:href="#linear-gradient"/>
      <linearGradient id="linear-gradient-4" x1="1651.55" y1="664.86" x2="1668.94" y2="664.86" xlink:href="#linear-gradient"/>
      <linearGradient id="linear-gradient-5" x1="1619.92" y1="723.12" x2="1647.14" y2="723.12" xlink:href="#linear-gradient"/>
      <linearGradient id="linear-gradient-6" x1="1619.92" y1="712.02" x2="1647.14" y2="712.02" xlink:href="#linear-gradient"/>
      <linearGradient id="linear-gradient-7" x1="1651.55" y1="722.43" x2="1668.94" y2="722.43" xlink:href="#linear-gradient"/>
      <linearGradient id="linear-gradient-8" x1="1651.55" y1="710.68" x2="1668.94" y2="710.68" xlink:href="#linear-gradient"/>
      <linearGradient id="linear-gradient-9" x1="1619.92" y1="768.94" x2="1647.14" y2="768.94" xlink:href="#linear-gradient"/>
      <linearGradient id="linear-gradient-10" x1="1619.92" y1="757.84" x2="1647.14" y2="757.84" xlink:href="#linear-gradient"/>
      <linearGradient id="linear-gradient-11" x1="1651.55" y1="768.26" x2="1668.94" y2="768.26" xlink:href="#linear-gradient"/>
      <linearGradient id="linear-gradient-12" x1="1651.55" y1="756.51" x2="1668.94" y2="756.51" xlink:href="#linear-gradient"/>
      <linearGradient id="linear-gradient-13" x1="1619.92" y1="814.76" x2="1647.14" y2="814.76" xlink:href="#linear-gradient"/>
      <linearGradient id="linear-gradient-14" x1="1619.92" y1="803.66" x2="1647.14" y2="803.66" xlink:href="#linear-gradient"/>
      <linearGradient id="linear-gradient-15" x1="1651.55" y1="814.08" x2="1668.94" y2="814.08" xlink:href="#linear-gradient"/>
      <linearGradient id="linear-gradient-16" x1="1651.55" y1="802.33" x2="1668.94" y2="802.33" xlink:href="#linear-gradient"/>
      <linearGradient id="linear-gradient-17" x1="1619.92" y1="860.59" x2="1647.14" y2="860.59" xlink:href="#linear-gradient"/>
      <linearGradient id="linear-gradient-18" x1="1619.92" y1="849.49" x2="1647.14" y2="849.49" xlink:href="#linear-gradient"/>
      <linearGradient id="linear-gradient-19" x1="1651.55" y1="860.6" x2="1668.94" y2="860.6" xlink:href="#linear-gradient"/>
      <linearGradient id="linear-gradient-20" x1="1651.55" y1="848.85" x2="1668.94" y2="848.85" xlink:href="#linear-gradient"/>
      <linearGradient id="linear-gradient-21" x1="1619.92" y1="906.41" x2="1647.14" y2="906.41" xlink:href="#linear-gradient"/>
      <linearGradient id="linear-gradient-22" x1="1619.92" y1="895.31" x2="1647.14" y2="895.31" xlink:href="#linear-gradient"/>
      <linearGradient id="linear-gradient-23" x1="1651.55" y1="906.82" x2="1668.94" y2="906.82" xlink:href="#linear-gradient"/>
      <linearGradient id="linear-gradient-24" x1="1651.55" y1="895.07" x2="1668.94" y2="895.07" xlink:href="#linear-gradient"/>
      <linearGradient id="linear-gradient-25" x1="1619.92" y1="952.23" x2="1647.14" y2="952.23" xlink:href="#linear-gradient"/>
      <linearGradient id="linear-gradient-26" x1="1619.92" y1="941.13" x2="1647.14" y2="941.13" xlink:href="#linear-gradient"/>
      <linearGradient id="linear-gradient-27" x1="1651.55" y1="953.05" x2="1668.94" y2="953.05" xlink:href="#linear-gradient"/>
      <linearGradient id="linear-gradient-28" x1="1651.55" y1="941.3" x2="1668.94" y2="941.3" xlink:href="#linear-gradient"/>
      <linearGradient id="linear-gradient-29" x1="1619.92" y1="998.05" x2="1647.14" y2="998.05" xlink:href="#linear-gradient"/>
      <linearGradient id="linear-gradient-30" x1="1619.92" y1="986.95" x2="1647.14" y2="986.95" xlink:href="#linear-gradient"/>
      <linearGradient id="linear-gradient-31" x1="1650.76" y1="999.27" x2="1668.14" y2="999.27" xlink:href="#linear-gradient"/>
      <linearGradient id="linear-gradient-32" x1="1650.76" y1="987.52" x2="1668.14" y2="987.52" xlink:href="#linear-gradient"/>
      <linearGradient id="linear-gradient-33" x1="1619.15" y1="1044.84" x2="1646.37" y2="1044.84" xlink:href="#linear-gradient"/>
      <linearGradient id="linear-gradient-34" x1="1619.15" y1="1033.74" x2="1646.37" y2="1033.74" xlink:href="#linear-gradient"/>
      <linearGradient id="linear-gradient-35" x1="1651.55" y1="1047.6" x2="1668.94" y2="1047.6" xlink:href="#linear-gradient"/>
      <linearGradient id="linear-gradient-36" x1="1651.55" y1="1035.85" x2="1668.94" y2="1035.85" xlink:href="#linear-gradient"/>
      <linearGradient id="linear-gradient-37" x1="1619.15" y1="1092.78" x2="1646.37" y2="1092.78" xlink:href="#linear-gradient"/>
      <linearGradient id="linear-gradient-38" x1="1619.15" y1="1081.67" x2="1646.37" y2="1081.67" xlink:href="#linear-gradient"/>
      <linearGradient id="linear-gradient-39" x1="1651.55" y1="1094.23" x2="1668.94" y2="1094.23" xlink:href="#linear-gradient"/>
      <linearGradient id="linear-gradient-40" x1="1651.55" y1="1082.48" x2="1668.94" y2="1082.48" xlink:href="#linear-gradient"/>
      <linearGradient id="linear-gradient-41" x1="1617.27" y1="1138.6" x2="1644.49" y2="1138.6" xlink:href="#linear-gradient"/>
      <linearGradient id="linear-gradient-42" x1="1617.27" y1="1127.5" x2="1644.49" y2="1127.5" xlink:href="#linear-gradient"/>
      <linearGradient id="linear-gradient-43" x1="1651.55" y1="1137.94" x2="1668.94" y2="1137.94" xlink:href="#linear-gradient"/>
      <linearGradient id="linear-gradient-44" x1="1651.55" y1="1126.18" x2="1668.94" y2="1126.18" xlink:href="#linear-gradient"/>
      <linearGradient id="linear-gradient-45" x1="1619.15" y1="1186.21" x2="1646.37" y2="1186.21" xlink:href="#linear-gradient"/>
      <linearGradient id="linear-gradient-46" x1="1619.15" y1="1175.1" x2="1646.37" y2="1175.1" xlink:href="#linear-gradient"/>
      <linearGradient id="linear-gradient-47" x1="1651.55" y1="1183.74" x2="1668.94" y2="1183.74" xlink:href="#linear-gradient"/>
      <linearGradient id="linear-gradient-48" x1="1651.55" y1="1171.99" x2="1668.94" y2="1171.99" xlink:href="#linear-gradient"/>
      <linearGradient id="linear-gradient-49" x1="1619.15" y1="1232.03" x2="1646.37" y2="1232.03" xlink:href="#linear-gradient"/>
      <linearGradient id="linear-gradient-50" x1="1619.15" y1="1220.92" x2="1646.37" y2="1220.92" xlink:href="#linear-gradient"/>
      <linearGradient id="linear-gradient-51" x1="1650.76" y1="1232.68" x2="1668.14" y2="1232.68" xlink:href="#linear-gradient"/>
      <linearGradient id="linear-gradient-52" x1="1650.76" y1="1220.92" x2="1668.14" y2="1220.92" xlink:href="#linear-gradient"/>
      <linearGradient id="linear-gradient-53" x1="1617.64" y1="1277.85" x2="1644.86" y2="1277.85" xlink:href="#linear-gradient"/>
      <linearGradient id="linear-gradient-54" x1="1617.64" y1="1266.74" x2="1644.86" y2="1266.74" xlink:href="#linear-gradient"/>
      <linearGradient id="linear-gradient-55" x1="1650.76" y1="1278.5" x2="1668.14" y2="1278.5" xlink:href="#linear-gradient"/>
      <linearGradient id="linear-gradient-56" x1="1650.76" y1="1266.74" x2="1668.14" y2="1266.74" xlink:href="#linear-gradient"/>
      <linearGradient id="linear-gradient-57" x1="1617.64" y1="1321.88" x2="1644.86" y2="1321.88" xlink:href="#linear-gradient"/>
      <linearGradient id="linear-gradient-58" x1="1617.64" y1="1310.78" x2="1644.86" y2="1310.78" xlink:href="#linear-gradient"/>
      <linearGradient id="linear-gradient-59" x1="1650.76" y1="1326.51" x2="1668.14" y2="1326.51" xlink:href="#linear-gradient"/>
      <linearGradient id="linear-gradient-60" x1="1650.76" y1="1314.76" x2="1668.14" y2="1314.76" xlink:href="#linear-gradient"/>
      <linearGradient id="linear-gradient-61" x1="1619.15" y1="1372.09" x2="1646.37" y2="1372.09" xlink:href="#linear-gradient"/>
      <linearGradient id="linear-gradient-62" x1="1619.15" y1="1360.99" x2="1646.37" y2="1360.99" xlink:href="#linear-gradient"/>
      <linearGradient id="linear-gradient-63" x1="1650.76" y1="1370.82" x2="1668.14" y2="1370.82" xlink:href="#linear-gradient"/>
      <linearGradient id="linear-gradient-64" x1="1650.76" y1="1359.07" x2="1668.14" y2="1359.07" xlink:href="#linear-gradient"/>
      <linearGradient id="linear-gradient-65" x1="1619.15" y1="656.52" x2="1656.6" y2="656.52" gradientTransform="translate(2212.23 -1503.02) rotate(90)" gradientUnits="userSpaceOnUse">
         <stop offset="0" stop-color="#949494"/>
         <stop offset="0.14" stop-color="#bbb"/>
         <stop offset="0.3" stop-color="#e0e0e0"/>
         <stop offset="0.43" stop-color="#f7f7f7"/>
         <stop offset="0.51" stop-color="#fff"/>
         <stop offset="0.58" stop-color="#f8f8f8"/>
         <stop offset="0.68" stop-color="#e5e5e5"/>
         <stop offset="0.8" stop-color="#c6c6c6"/>
         <stop offset="0.93" stop-color="#9b9b9b"/>
         <stop offset="1" stop-color="#818181"/>
      </linearGradient>
      <linearGradient id="linear-gradient-66" x1="1619.15" y1="667.3" x2="1656.6" y2="667.3" xlink:href="#linear-gradient-65"/>
      <linearGradient id="linear-gradient-67" x1="1619.15" y1="702.74" x2="1656.6" y2="702.74" xlink:href="#linear-gradient-65"/>
      <linearGradient id="linear-gradient-68" x1="1619.15" y1="713.52" x2="1656.6" y2="713.52" xlink:href="#linear-gradient-65"/>
      <linearGradient id="linear-gradient-69" x1="1619.15" y1="748.96" x2="1656.6" y2="748.96" xlink:href="#linear-gradient-65"/>
      <linearGradient id="linear-gradient-70" x1="1619.15" y1="759.74" x2="1656.6" y2="759.74" xlink:href="#linear-gradient-65"/>
      <linearGradient id="linear-gradient-71" x1="1619.15" y1="795.18" x2="1656.6" y2="795.18" xlink:href="#linear-gradient-65"/>
      <linearGradient id="linear-gradient-72" x1="1619.15" y1="805.96" x2="1656.6" y2="805.96" xlink:href="#linear-gradient-65"/>
      <linearGradient id="linear-gradient-73" x1="1619.15" y1="841.4" x2="1656.6" y2="841.4" xlink:href="#linear-gradient-65"/>
      <linearGradient id="linear-gradient-74" x1="1619.15" y1="852.18" x2="1656.6" y2="852.18" xlink:href="#linear-gradient-65"/>
      <linearGradient id="linear-gradient-75" x1="1619.15" y1="887.62" x2="1656.6" y2="887.62" xlink:href="#linear-gradient-65"/>
      <linearGradient id="linear-gradient-76" x1="1619.15" y1="898.4" x2="1656.6" y2="898.4" xlink:href="#linear-gradient-65"/>
      <linearGradient id="linear-gradient-77" x1="1619.15" y1="933.85" x2="1656.6" y2="933.85" xlink:href="#linear-gradient-65"/>
      <linearGradient id="linear-gradient-78" x1="1619.15" y1="944.63" x2="1656.6" y2="944.63" xlink:href="#linear-gradient-65"/>
      <linearGradient id="linear-gradient-79" x1="1619.15" y1="980.07" x2="1656.6" y2="980.07" xlink:href="#linear-gradient-65"/>
      <linearGradient id="linear-gradient-80" x1="1619.15" y1="990.85" x2="1656.6" y2="990.85" xlink:href="#linear-gradient-65"/>
      <linearGradient id="linear-gradient-81" x1="1619.15" y1="1026.29" x2="1656.6" y2="1026.29" xlink:href="#linear-gradient-65"/>
      <linearGradient id="linear-gradient-82" x1="1619.15" y1="1037.07" x2="1656.6" y2="1037.07" xlink:href="#linear-gradient-65"/>
      <linearGradient id="linear-gradient-83" x1="1619.15" y1="1072.51" x2="1656.6" y2="1072.51" xlink:href="#linear-gradient-65"/>
      <linearGradient id="linear-gradient-84" x1="1619.15" y1="1083.29" x2="1656.6" y2="1083.29" xlink:href="#linear-gradient-65"/>
      <linearGradient id="linear-gradient-85" x1="1619.15" y1="1118.73" x2="1656.6" y2="1118.73" xlink:href="#linear-gradient-65"/>
      <linearGradient id="linear-gradient-86" x1="1619.15" y1="1129.51" x2="1656.6" y2="1129.51" xlink:href="#linear-gradient-65"/>
      <linearGradient id="linear-gradient-87" x1="1619.15" y1="1164.96" x2="1656.6" y2="1164.96" xlink:href="#linear-gradient-65"/>
      <linearGradient id="linear-gradient-88" x1="1619.15" y1="1175.74" x2="1656.6" y2="1175.74" xlink:href="#linear-gradient-65"/>
      <linearGradient id="linear-gradient-89" x1="1619.15" y1="1211.18" x2="1656.6" y2="1211.18" xlink:href="#linear-gradient-65"/>
      <linearGradient id="linear-gradient-90" x1="1619.15" y1="1221.96" x2="1656.6" y2="1221.96" xlink:href="#linear-gradient-65"/>
      <linearGradient id="linear-gradient-91" x1="1619.15" y1="1257.4" x2="1656.6" y2="1257.4" xlink:href="#linear-gradient-65"/>
      <linearGradient id="linear-gradient-92" x1="1619.15" y1="1268.18" x2="1656.6" y2="1268.18" xlink:href="#linear-gradient-65"/>
      <linearGradient id="linear-gradient-93" x1="1619.15" y1="1303.62" x2="1656.6" y2="1303.62" xlink:href="#linear-gradient-65"/>
      <linearGradient id="linear-gradient-94" x1="1619.15" y1="1314.4" x2="1656.6" y2="1314.4" xlink:href="#linear-gradient-65"/>
      <linearGradient id="linear-gradient-95" x1="1619.15" y1="1349.85" x2="1656.6" y2="1349.85" xlink:href="#linear-gradient-65"/>
      <linearGradient id="linear-gradient-96" x1="1619.15" y1="1360.63" x2="1656.6" y2="1360.63" xlink:href="#linear-gradient-65"/>
      <linearGradient id="linear-gradient-97" x1="1619.92" y1="1424.73" x2="1647.14" y2="1424.73" xlink:href="#linear-gradient"/>
      <linearGradient id="linear-gradient-98" x1="1619.92" y1="1413.63" x2="1647.14" y2="1413.63" xlink:href="#linear-gradient"/>
      <linearGradient id="linear-gradient-99" x1="1651.55" y1="1424.05" x2="1668.94" y2="1424.05" xlink:href="#linear-gradient"/>
      <linearGradient id="linear-gradient-100" x1="1651.55" y1="1412.3" x2="1668.94" y2="1412.3" xlink:href="#linear-gradient"/>
      <linearGradient id="linear-gradient-101" x1="1619.92" y1="1470.55" x2="1647.14" y2="1470.55" xlink:href="#linear-gradient"/>
      <linearGradient id="linear-gradient-102" x1="1619.92" y1="1459.46" x2="1647.14" y2="1459.46" xlink:href="#linear-gradient"/>
      <linearGradient id="linear-gradient-103" x1="1651.55" y1="1469.87" x2="1668.94" y2="1469.87" xlink:href="#linear-gradient"/>
      <linearGradient id="linear-gradient-104" x1="1651.55" y1="1458.12" x2="1668.94" y2="1458.12" xlink:href="#linear-gradient"/>
      <linearGradient id="linear-gradient-105" x1="1619.92" y1="1516.38" x2="1647.14" y2="1516.38" xlink:href="#linear-gradient"/>
      <linearGradient id="linear-gradient-106" x1="1619.92" y1="1505.28" x2="1647.14" y2="1505.28" xlink:href="#linear-gradient"/>
      <linearGradient id="linear-gradient-107" x1="1651.55" y1="1515.69" x2="1668.94" y2="1515.69" xlink:href="#linear-gradient"/>
      <linearGradient id="linear-gradient-108" x1="1651.55" y1="1503.94" x2="1668.94" y2="1503.94" xlink:href="#linear-gradient"/>
      <linearGradient id="linear-gradient-109" x1="1619.92" y1="1562.2" x2="1647.14" y2="1562.2" xlink:href="#linear-gradient"/>
      <linearGradient id="linear-gradient-110" x1="1619.92" y1="1551.1" x2="1647.14" y2="1551.1" xlink:href="#linear-gradient"/>
      <linearGradient id="linear-gradient-111" x1="1651.55" y1="1561.51" x2="1668.94" y2="1561.51" xlink:href="#linear-gradient"/>
      <linearGradient id="linear-gradient-112" x1="1651.55" y1="1549.76" x2="1668.94" y2="1549.76" xlink:href="#linear-gradient"/>
      <linearGradient id="linear-gradient-113" x1="1619.92" y1="1608.02" x2="1647.14" y2="1608.02" xlink:href="#linear-gradient"/>
      <linearGradient id="linear-gradient-114" x1="1619.92" y1="1596.92" x2="1647.14" y2="1596.92" xlink:href="#linear-gradient"/>
      <linearGradient id="linear-gradient-115" x1="1651.55" y1="1608.04" x2="1668.94" y2="1608.04" xlink:href="#linear-gradient"/>
      <linearGradient id="linear-gradient-116" x1="1651.55" y1="1596.29" x2="1668.94" y2="1596.29" xlink:href="#linear-gradient"/>
      <linearGradient id="linear-gradient-117" x1="1619.92" y1="1653.84" x2="1647.14" y2="1653.84" xlink:href="#linear-gradient"/>
      <linearGradient id="linear-gradient-118" x1="1619.92" y1="1642.74" x2="1647.14" y2="1642.74" xlink:href="#linear-gradient"/>
      <linearGradient id="linear-gradient-119" x1="1651.55" y1="1654.26" x2="1668.94" y2="1654.26" xlink:href="#linear-gradient"/>
      <linearGradient id="linear-gradient-120" x1="1651.55" y1="1642.51" x2="1668.94" y2="1642.51" xlink:href="#linear-gradient"/>
      <linearGradient id="linear-gradient-121" x1="1619.92" y1="1699.67" x2="1647.14" y2="1699.67" xlink:href="#linear-gradient"/>
      <linearGradient id="linear-gradient-122" x1="1619.92" y1="1688.56" x2="1647.14" y2="1688.56" xlink:href="#linear-gradient"/>
      <linearGradient id="linear-gradient-123" x1="1651.55" y1="1700.48" x2="1668.94" y2="1700.48" xlink:href="#linear-gradient"/>
      <linearGradient id="linear-gradient-124" x1="1651.55" y1="1688.73" x2="1668.94" y2="1688.73" xlink:href="#linear-gradient"/>
      <linearGradient id="linear-gradient-125" x1="1619.92" y1="1745.49" x2="1647.14" y2="1745.49" xlink:href="#linear-gradient"/>
      <linearGradient id="linear-gradient-126" x1="1619.92" y1="1734.39" x2="1647.14" y2="1734.39" xlink:href="#linear-gradient"/>
      <linearGradient id="linear-gradient-127" x1="1650.76" y1="1746.7" x2="1668.14" y2="1746.7" xlink:href="#linear-gradient"/>
      <linearGradient id="linear-gradient-128" x1="1650.76" y1="1734.95" x2="1668.14" y2="1734.95" xlink:href="#linear-gradient"/>
      <linearGradient id="linear-gradient-129" x1="1619.15" y1="1792.28" x2="1646.37" y2="1792.28" xlink:href="#linear-gradient"/>
      <linearGradient id="linear-gradient-130" x1="1619.15" y1="1781.17" x2="1646.37" y2="1781.17" xlink:href="#linear-gradient"/>
      <linearGradient id="linear-gradient-131" x1="1651.55" y1="1795.04" x2="1668.94" y2="1795.04" xlink:href="#linear-gradient"/>
      <linearGradient id="linear-gradient-132" x1="1651.55" y1="1783.29" x2="1668.94" y2="1783.29" xlink:href="#linear-gradient"/>
      <linearGradient id="linear-gradient-133" x1="1619.15" y1="1840.21" x2="1646.37" y2="1840.21" xlink:href="#linear-gradient"/>
      <linearGradient id="linear-gradient-134" x1="1619.15" y1="1829.11" x2="1646.37" y2="1829.11" xlink:href="#linear-gradient"/>
      <linearGradient id="linear-gradient-135" x1="1651.55" y1="1841.67" x2="1668.94" y2="1841.67" xlink:href="#linear-gradient"/>
      <linearGradient id="linear-gradient-136" x1="1651.55" y1="1829.91" x2="1668.94" y2="1829.91" xlink:href="#linear-gradient"/>
      <linearGradient id="linear-gradient-137" x1="1617.27" y1="1886.03" x2="1644.49" y2="1886.03" xlink:href="#linear-gradient"/>
      <linearGradient id="linear-gradient-138" x1="1617.27" y1="1874.93" x2="1644.49" y2="1874.93" xlink:href="#linear-gradient"/>
      <linearGradient id="linear-gradient-139" x1="1651.55" y1="1885.37" x2="1668.94" y2="1885.37" xlink:href="#linear-gradient"/>
      <linearGradient id="linear-gradient-140" x1="1651.55" y1="1873.62" x2="1668.94" y2="1873.62" xlink:href="#linear-gradient"/>
      <linearGradient id="linear-gradient-141" x1="1619.15" y1="1933.64" x2="1646.37" y2="1933.64" xlink:href="#linear-gradient"/>
      <linearGradient id="linear-gradient-142" x1="1619.15" y1="1922.54" x2="1646.37" y2="1922.54" xlink:href="#linear-gradient"/>
      <linearGradient id="linear-gradient-143" x1="1651.55" y1="1931.18" x2="1668.94" y2="1931.18" xlink:href="#linear-gradient"/>
      <linearGradient id="linear-gradient-144" x1="1651.55" y1="1919.42" x2="1668.94" y2="1919.42" xlink:href="#linear-gradient"/>
      <linearGradient id="linear-gradient-145" x1="1619.15" y1="1979.46" x2="1646.37" y2="1979.46" xlink:href="#linear-gradient"/>
      <linearGradient id="linear-gradient-146" x1="1619.15" y1="1968.36" x2="1646.37" y2="1968.36" xlink:href="#linear-gradient"/>
      <linearGradient id="linear-gradient-147" x1="1650.76" y1="1980.11" x2="1668.14" y2="1980.11" xlink:href="#linear-gradient"/>
      <linearGradient id="linear-gradient-148" x1="1650.76" y1="1968.36" x2="1668.14" y2="1968.36" xlink:href="#linear-gradient"/>
      <linearGradient id="linear-gradient-149" x1="1617.64" y1="2025.28" x2="1644.86" y2="2025.28" xlink:href="#linear-gradient"/>
      <linearGradient id="linear-gradient-150" x1="1617.64" y1="2014.18" x2="1644.86" y2="2014.18" xlink:href="#linear-gradient"/>
      <linearGradient id="linear-gradient-151" x1="1650.76" y1="2025.93" x2="1668.14" y2="2025.93" xlink:href="#linear-gradient"/>
      <linearGradient id="linear-gradient-152" x1="1650.76" y1="2014.18" x2="1668.14" y2="2014.18" xlink:href="#linear-gradient"/>
      <linearGradient id="linear-gradient-153" x1="1617.64" y1="2069.32" x2="1644.86" y2="2069.32" xlink:href="#linear-gradient"/>
      <linearGradient id="linear-gradient-154" x1="1617.64" y1="2058.21" x2="1644.86" y2="2058.21" xlink:href="#linear-gradient"/>
      <linearGradient id="linear-gradient-155" x1="1650.76" y1="2073.95" x2="1668.14" y2="2073.95" xlink:href="#linear-gradient"/>
      <linearGradient id="linear-gradient-156" x1="1650.76" y1="2062.2" x2="1668.14" y2="2062.2" xlink:href="#linear-gradient"/>
      <linearGradient id="linear-gradient-157" x1="1619.15" y1="2119.52" x2="1646.37" y2="2119.52" xlink:href="#linear-gradient"/>
      <linearGradient id="linear-gradient-158" x1="1619.15" y1="2108.42" x2="1646.37" y2="2108.42" xlink:href="#linear-gradient"/>
      <linearGradient id="linear-gradient-159" x1="1650.76" y1="2118.26" x2="1668.14" y2="2118.26" xlink:href="#linear-gradient"/>
      <linearGradient id="linear-gradient-160" x1="1650.76" y1="2106.5" x2="1668.14" y2="2106.5" xlink:href="#linear-gradient"/>
      <linearGradient id="linear-gradient-161" x1="1619.15" y1="1403.95" x2="1656.6" y2="1403.95" xlink:href="#linear-gradient-65"/>
      <linearGradient id="linear-gradient-162" x1="1619.15" y1="1414.73" x2="1656.6" y2="1414.73" xlink:href="#linear-gradient-65"/>
      <linearGradient id="linear-gradient-163" x1="1619.15" y1="1450.17" x2="1656.6" y2="1450.17" xlink:href="#linear-gradient-65"/>
      <linearGradient id="linear-gradient-164" x1="1619.15" y1="1460.95" x2="1656.6" y2="1460.95" xlink:href="#linear-gradient-65"/>
      <linearGradient id="linear-gradient-165" x1="1619.15" y1="1496.4" x2="1656.6" y2="1496.4" xlink:href="#linear-gradient-65"/>
      <linearGradient id="linear-gradient-166" x1="1619.15" y1="1507.17" x2="1656.6" y2="1507.17" xlink:href="#linear-gradient-65"/>
      <linearGradient id="linear-gradient-167" x1="1619.15" y1="1542.62" x2="1656.6" y2="1542.62" xlink:href="#linear-gradient-65"/>
      <linearGradient id="linear-gradient-168" x1="1619.15" y1="1553.4" x2="1656.6" y2="1553.4" xlink:href="#linear-gradient-65"/>
      <linearGradient id="linear-gradient-169" x1="1619.15" y1="1588.84" x2="1656.6" y2="1588.84" xlink:href="#linear-gradient-65"/>
      <linearGradient id="linear-gradient-170" x1="1619.15" y1="1599.62" x2="1656.6" y2="1599.62" xlink:href="#linear-gradient-65"/>
      <linearGradient id="linear-gradient-171" x1="1619.15" y1="1635.06" x2="1656.6" y2="1635.06" xlink:href="#linear-gradient-65"/>
      <linearGradient id="linear-gradient-172" x1="1619.15" y1="1645.84" x2="1656.6" y2="1645.84" xlink:href="#linear-gradient-65"/>
      <linearGradient id="linear-gradient-173" x1="1619.15" y1="1681.28" x2="1656.6" y2="1681.28" xlink:href="#linear-gradient-65"/>
      <linearGradient id="linear-gradient-174" x1="1619.15" y1="1692.06" x2="1656.6" y2="1692.06" xlink:href="#linear-gradient-65"/>
      <linearGradient id="linear-gradient-175" x1="1619.15" y1="1727.5" x2="1656.6" y2="1727.5" xlink:href="#linear-gradient-65"/>
      <linearGradient id="linear-gradient-176" x1="1619.15" y1="1738.28" x2="1656.6" y2="1738.28" xlink:href="#linear-gradient-65"/>
      <linearGradient id="linear-gradient-177" x1="1619.15" y1="1773.73" x2="1656.6" y2="1773.73" xlink:href="#linear-gradient-65"/>
      <linearGradient id="linear-gradient-178" x1="1619.15" y1="1784.5" x2="1656.6" y2="1784.5" xlink:href="#linear-gradient-65"/>
      <linearGradient id="linear-gradient-179" x1="1619.15" y1="1819.95" x2="1656.6" y2="1819.95" xlink:href="#linear-gradient-65"/>
      <linearGradient id="linear-gradient-180" x1="1619.15" y1="1830.73" x2="1656.6" y2="1830.73" xlink:href="#linear-gradient-65"/>
      <linearGradient id="linear-gradient-181" x1="1619.15" y1="1866.17" x2="1656.6" y2="1866.17" xlink:href="#linear-gradient-65"/>
      <linearGradient id="linear-gradient-182" x1="1619.15" y1="1876.95" x2="1656.6" y2="1876.95" xlink:href="#linear-gradient-65"/>
      <linearGradient id="linear-gradient-183" x1="1619.15" y1="1912.39" x2="1656.6" y2="1912.39" xlink:href="#linear-gradient-65"/>
      <linearGradient id="linear-gradient-184" x1="1619.15" y1="1923.17" x2="1656.6" y2="1923.17" xlink:href="#linear-gradient-65"/>
      <linearGradient id="linear-gradient-185" x1="1619.15" y1="1958.61" x2="1656.6" y2="1958.61" xlink:href="#linear-gradient-65"/>
      <linearGradient id="linear-gradient-186" x1="1619.15" y1="1969.39" x2="1656.6" y2="1969.39" xlink:href="#linear-gradient-65"/>
      <linearGradient id="linear-gradient-187" x1="1619.15" y1="2004.84" x2="1656.6" y2="2004.84" xlink:href="#linear-gradient-65"/>
      <linearGradient id="linear-gradient-188" x1="1619.15" y1="2015.62" x2="1656.6" y2="2015.62" xlink:href="#linear-gradient-65"/>
      <linearGradient id="linear-gradient-189" x1="1619.15" y1="2051.06" x2="1656.6" y2="2051.06" xlink:href="#linear-gradient-65"/>
      <linearGradient id="linear-gradient-190" x1="1619.15" y1="2061.84" x2="1656.6" y2="2061.84" xlink:href="#linear-gradient-65"/>
      <linearGradient id="linear-gradient-191" x1="1619.15" y1="2097.28" x2="1656.6" y2="2097.28" xlink:href="#linear-gradient-65"/>
      <linearGradient id="linear-gradient-192" x1="1619.15" y1="2108.06" x2="1656.6" y2="2108.06" xlink:href="#linear-gradient-65"/>
   </defs>
   <title>slil notebook_calender</title>
   <g class="cls-1">
      <g id="calender">
         <g id="blue_notebook_background" data-name="blue notebook background">
            <g id="Group_slil" data-name="Group slil">
               <g id="slil">
                  <polygon class="cls-2" points="1455.4 2.65 1442.22 29.87 1452.12 29.87 1464.83 10.72 1455.4 2.65"></polygon>
   <polygon class="cls-3" points="1466.5 2.65 1453.32 29.87 1463.23 29.87 1475.93 10.72 1466.5 2.65"></polygon>
   <polygon class="cls-4" points=""></polygon>
   <polygon class="cls-5" points=""></polygon>
   <polygon class="cls-6" points="1409.58 2.65 1396.4 29.87 1406.3 29.87 1419.01 10.72 1409.58 2.65"></polygon>
   <polygon class="cls-7" points="1420.68 2.65 1407.5 29.87 1417.4 29.87 1430.11 10.72 1420.68 2.65"></polygon>
   <polygon class="cls-8" points=""></polygon>
   <polygon class="cls-9" points=""></polygon>
   <polygon class="cls-10" points="1363.75 2.65 1350.58 29.87 1360.48 29.87 1373.18 10.72 1363.75 2.65"></polygon>
   <polygon class="cls-11" points="1374.85 2.65 1361.68 29.87 1371.58 29.87 1384.29 10.72 1374.85 2.65"></polygon>
   <polygon class="cls-12" points=""></polygon>
   <polygon class="cls-13" points=""></polygon>
   <polygon class="cls-14" points="1317.93 2.65 1304.76 29.87 1314.66 29.87 1327.36 10.72 1317.93 2.65"></polygon>
   <polygon class="cls-15" points="1329.03 2.65 1315.86 29.87 1325.76 29.87 1338.46 10.72 1329.03 2.65"></polygon>
   <polygon class="cls-16" points=""></polygon>
   <polygon class="cls-17" points=""></polygon>
   <polygon class="cls-18" points="1272.11 2.65 1258.93 29.87 1268.84 29.87 1281.54 10.72 1272.11 2.65"></polygon>
   <polygon class="cls-19" points="1283.21 2.65 1270.04 29.87 1279.94 29.87 1292.64 10.72 1283.21 2.65"></polygon>
   <polygon class="cls-20" points=""></polygon>
   <polygon class="cls-21" points=""></polygon>
   <polygon class="cls-22" points="1226.29 2.65 1213.12 29.87 1223.02 29.87 1235.72 10.72 1226.29 2.65"></polygon>
   <polygon class="cls-23" points="1237.39 2.65 1224.21 29.87 1234.12 29.87 1246.82 10.72 1237.39 2.65"></polygon>
   <polygon class="cls-24" points=""></polygon>
   <polygon class="cls-25" points=""></polygon>
   <polygon class="cls-26" points="1180.47 2.65 1167.29 29.87 1177.19 29.87 1189.9 10.72 1180.47 2.65"></polygon>
   <polygon class="cls-27" points="1191.57 2.65 1178.39 29.87 1188.29 29.87 1201 10.72 1191.57 2.65"></polygon>
   <polygon class="cls-28" points=""></polygon>
   <polygon class="cls-29" points=""></polygon>
   <polygon class="cls-30" points="1134.64 2.65 1121.47 29.87 1131.37 29.87 1144.08 10.72 1134.64 2.65"></polygon>
   <polygon class="cls-31" points="1145.74 2.65 1132.57 29.87 1142.47 29.87 1155.18 10.72 1145.74 2.65"></polygon>
   <polygon class="cls-32" points=""></polygon>
   <polygon class="cls-33" points=""></polygon>
   <polygon class="cls-34" points="1087.86 1.88 1074.68 29.1 1084.59 29.1 1097.29 9.95 1087.86 1.88"></polygon>
   <polygon class="cls-35" points="1098.96 1.88 1085.78 29.1 1095.68 29.1 1108.39 9.95 1098.96 1.88"></polygon>
   <polygon class="cls-36" points=""></polygon>
   <polygon class="cls-37" points=""></polygon>
   <polygon class="cls-38" points="1039.92 1.88 1026.75 29.1 1036.65 29.1 1049.35 9.95 1039.92 1.88"></polygon>
   <polygon class="cls-39" points="1051.02 1.88 1037.85 29.1 1047.75 29.1 1060.45 9.95 1051.02 1.88"></polygon>
   <polygon class="cls-40" points=""></polygon>
   <polygon class="cls-41" points=""></polygon>
   <polygon class="cls-42" points="994.1 0 980.93 27.22 990.83 27.22 1003.53 8.07 994.1 0"></polygon>
   <polygon class="cls-43" points="1005.2 0 992.03 27.22 1001.93 27.22 1014.63 8.07 1005.2 0"></polygon>
   <polygon class="cls-44" points=""></polygon>
   <polygon class="cls-45" points=""></polygon>
   <polygon class="cls-46" points="946.49 1.88 933.32 29.1 943.22 29.1 955.92 9.95 946.49 1.88"></polygon>
   <polygon class="cls-47" points="957.59 1.88 944.42 29.1 954.32 29.1 967.02 9.95 957.59 1.88"></polygon>
   <polygon class="cls-48" points=""></polygon>
   <polygon class="cls-49" points=""></polygon>
   <polygon class="cls-50" points="900.67 1.88 887.5 29.1 897.4 29.1 910.1 9.95 900.67 1.88"></polygon>
   <polygon class="cls-51" points="911.77 1.88 898.6 29.1 908.5 29.1 921.2 9.95 911.77 1.88"></polygon>
   <polygon class="cls-52" points=""></polygon>
   <polygon class="cls-53" points=""></polygon>
   <polygon class="cls-54" points="854.85 0.37 841.68 27.58 851.58 27.58 864.28 8.44 854.85 0.37"></polygon>
   <polygon class="cls-55" points="865.95 0.37 852.77 27.58 862.68 27.58 875.38 8.44 865.95 0.37"></polygon>
   <polygon class="cls-56" points=""></polygon>
   <polygon class="cls-57" points=""></polygon>
   <polygon class="cls-58" points="810.82 0.37 797.64 27.58 807.54 27.58 820.25 8.44 810.82 0.37"></polygon>
   <polygon class="cls-59" points="821.91 0.37 808.74 27.58 818.64 27.58 831.35 8.44 821.91 0.37"></polygon>
   <polygon class="cls-60"></polygon>
   <polygon class="cls-61" points=""></polygon>
   <polygon class="cls-62" points="760.61 1.88 747.43 29.1 757.34 29.1 770.04 9.95 760.61 1.88"></polygon>
   <polygon class="cls-63" points="771.71 1.88 758.53 29.1 768.44 29.1 781.14 9.95 771.71 1.88"></polygon>
   <polygon class="cls-64" points=""></polygon>
   <polygon class="cls-65"></polygon>
                  <rect class="cls-66" x="1452.73" y="33.48" width="25.8" height="7.5"/>
                  <path class="cls-67" d="M1550.53,153.58c-1.63,0-3-.6-3-1.34,0,0,5.91-9.11,5.91-17.38,0-9.53-5.91-17.39-5.91-17.39,0-.74,1.32-1.34,3-1.34h0c1.63,0,1.63,0,3,1.34a27.59,27.59,0,0,1,5.91,17.39,28.86,28.86,0,0,1-5.91,17.38c-1.11,1-1.32,1.34-3,1.34h0Z" transform="translate(-81.4 -114.25)"/>
                  <path class="cls-67" d="M1539.76,153.58c-1.63,0-3-.6-3-1.34,0,0,5.91-9.11,5.91-17.38,0-9.53-5.91-17.39-5.91-17.39,0-.74,1.32-1.34,3-1.34h0c1.63,0,1.63,0,3,1.34a27.59,27.59,0,0,1,5.91,17.39,28.87,28.87,0,0,1-5.91,17.38c-1.11,1-1.32,1.34-3,1.34h0Z" transform="translate(-81.4 -114.25)"/>
                  <path class="cls-68" d="M1552.76,153.58c-1.63,0-3-.6-3-1.34,0,0,5.91-9.11,5.91-17.38,0-9.53-5.91-17.39-5.91-17.39,0-.74,1.32-1.34,3-1.34h0c1.63,0,1.63,0,3,1.34a27.59,27.59,0,0,1,5.91,17.39,28.86,28.86,0,0,1-5.91,17.38c-1.11,1-1.32,1.34-3,1.34h0Z" transform="translate(-81.4 -114.25)"/>
                  <path class="cls-69" d="M1542,153.58c-1.63,0-3-.6-3-1.34,0,0,5.91-9.11,5.91-17.38,0-9.53-5.91-17.39-5.91-17.39,0-.74,1.32-1.34,3-1.34h0c1.63,0,1.63,0,3,1.34a27.58,27.58,0,0,1,5.91,17.39,28.86,28.86,0,0,1-5.91,17.38c-1.11,1-1.32,1.34-3,1.34h0Z" transform="translate(-81.4 -114.25)"/>
                  <rect class="cls-66" x="1406.5" y="33.48" width="25.8" height="7.5"/>
                  <path class="cls-67" d="M1504.31,153.58c-1.63,0-3-.6-3-1.34,0,0,5.91-9.11,5.91-17.38,0-9.53-5.91-17.39-5.91-17.39,0-.74,1.32-1.34,3-1.34h0c1.63,0,1.63,0,3,1.34a27.59,27.59,0,0,1,5.91,17.39,28.87,28.87,0,0,1-5.91,17.38c-1.11,1-1.32,1.34-3,1.34h0Z" transform="translate(-81.4 -114.25)"/>
                  <path class="cls-67" d="M1493.54,153.58c-1.63,0-3-.6-3-1.34,0,0,5.91-9.11,5.91-17.38,0-9.53-5.91-17.39-5.91-17.39,0-.74,1.32-1.34,3-1.34h0c1.63,0,1.63,0,3,1.34a27.59,27.59,0,0,1,5.91,17.39,28.86,28.86,0,0,1-5.91,17.38c-1.11,1-1.32,1.34-3,1.34h0Z" transform="translate(-81.4 -114.25)"/>
                  <path class="cls-70" d="M1506.53,153.58c-1.63,0-3-.6-3-1.34,0,0,5.91-9.11,5.91-17.38,0-9.53-5.91-17.39-5.91-17.39,0-.74,1.32-1.34,3-1.34h0c1.63,0,1.63,0,3,1.34a27.58,27.58,0,0,1,5.91,17.39,28.86,28.86,0,0,1-5.91,17.38c-1.11,1-1.32,1.34-3,1.34h0Z" transform="translate(-81.4 -114.25)"/>
                  <path class="cls-71" d="M1495.76,153.58c-1.63,0-3-.6-3-1.34,0,0,5.91-9.11,5.91-17.38,0-9.53-5.91-17.39-5.91-17.39,0-.74,1.32-1.34,3-1.34h0c1.63,0,1.63,0,3,1.34a27.59,27.59,0,0,1,5.91,17.39,28.86,28.86,0,0,1-5.91,17.38c-1.11,1-1.32,1.34-3,1.34h0Z" transform="translate(-81.4 -114.25)"/>
                  <rect class="cls-66" x="1360.28" y="33.48" width="25.8" height="7.51"/>
                  <path class="cls-67" d="M1458.09,153.58c-1.63,0-3-.6-3-1.34,0,0,5.91-9.11,5.91-17.38,0-9.53-5.91-17.39-5.91-17.39,0-.74,1.32-1.34,3-1.34h0c1.63,0,1.63,0,3,1.34a27.59,27.59,0,0,1,5.91,17.39,28.86,28.86,0,0,1-5.91,17.38c-1.11,1-1.32,1.34-3,1.34h0Z" transform="translate(-81.4 -114.25)"/>
                  <path class="cls-67" d="M1447.31,153.58c-1.63,0-3-.6-3-1.34,0,0,5.91-9.11,5.91-17.38,0-9.54-5.91-17.39-5.91-17.39,0-.74,1.32-1.34,3-1.34h0c1.63,0,1.63,0,3,1.34a27.6,27.6,0,0,1,5.91,17.39,28.86,28.86,0,0,1-5.91,17.38c-1.11,1-1.32,1.34-3,1.34h0Z" transform="translate(-81.4 -114.25)"/>
                  <path class="cls-72" d="M1460.31,153.58c-1.63,0-3-.6-3-1.34,0,0,5.91-9.11,5.91-17.38,0-9.53-5.91-17.39-5.91-17.39,0-.74,1.32-1.34,3-1.34h0c1.63,0,1.63,0,3,1.34a27.59,27.59,0,0,1,5.91,17.39,28.86,28.86,0,0,1-5.91,17.38c-1.11,1-1.32,1.34-3,1.34h0Z" transform="translate(-81.4 -114.25)"/>
                  <path class="cls-73" d="M1449.54,153.58c-1.64,0-3-.6-3-1.34,0,0,5.91-9.11,5.91-17.38,0-9.54-5.91-17.39-5.91-17.39,0-.74,1.32-1.34,3-1.34h0c1.63,0,1.63,0,3,1.34a27.59,27.59,0,0,1,5.91,17.39,28.85,28.85,0,0,1-5.91,17.38c-1.11,1-1.32,1.34-3,1.34h0Z" transform="translate(-81.4 -114.25)"/>
                  <rect class="cls-66" x="1314.06" y="33.48" width="25.8" height="7.51"/>
                  <path class="cls-67" d="M1411.87,153.58c-1.64,0-3-.6-3-1.34,0,0,5.91-9.11,5.91-17.38,0-9.54-5.91-17.39-5.91-17.39,0-.74,1.32-1.34,3-1.34h0c1.63,0,1.63,0,3,1.34a27.59,27.59,0,0,1,5.91,17.39,28.86,28.86,0,0,1-5.91,17.38c-1.11,1-1.32,1.34-3,1.34h0Z" transform="translate(-81.4 -114.25)"/>
                  <path class="cls-67" d="M1401.09,153.58c-1.64,0-3-.6-3-1.34,0,0,5.91-9.11,5.91-17.38,0-9.54-5.91-17.39-5.91-17.39,0-.74,1.32-1.34,3-1.34h0c1.63,0,1.63,0,3,1.34a27.58,27.58,0,0,1,5.91,17.39,28.86,28.86,0,0,1-5.91,17.38c-1.11,1-1.32,1.34-3,1.34h0Z" transform="translate(-81.4 -114.25)"/>
                  <path class="cls-74" d="M1414.09,153.58c-1.63,0-3-.6-3-1.34,0,0,5.91-9.11,5.91-17.38,0-9.54-5.91-17.39-5.91-17.39,0-.74,1.32-1.34,3-1.34h0c1.63,0,1.63,0,3,1.34a27.59,27.59,0,0,1,5.91,17.39,28.86,28.86,0,0,1-5.91,17.38c-1.11,1-1.32,1.34-3,1.34h0Z" transform="translate(-81.4 -114.25)"/>
                  <path class="cls-75" d="M1403.31,153.58c-1.63,0-3-.6-3-1.34,0,0,5.91-9.11,5.91-17.38,0-9.54-5.91-17.39-5.91-17.39,0-.74,1.32-1.34,3-1.34h0c1.63,0,1.63,0,3,1.34a27.59,27.59,0,0,1,5.91,17.39,28.87,28.87,0,0,1-5.91,17.38c-1.11,1-1.32,1.34-3,1.34h0Z" transform="translate(-81.4 -114.25)"/>
                  <rect class="cls-66" x="1267.84" y="33.48" width="25.8" height="7.51"/>
                  <path class="cls-67" d="M1365.65,153.58c-1.63,0-3-.6-3-1.34,0,0,5.91-9.11,5.91-17.38,0-9.54-5.91-17.39-5.91-17.39,0-.74,1.32-1.34,3-1.34h0c1.63,0,1.63,0,3,1.34a27.59,27.59,0,0,1,5.91,17.39,28.86,28.86,0,0,1-5.91,17.38c-1.11,1-1.32,1.34-3,1.34h0Z" transform="translate(-81.4 -114.25)"/>
                  <path class="cls-67" d="M1354.87,153.58c-1.63,0-3-.6-3-1.34,0,0,5.91-9.11,5.91-17.38,0-9.54-5.91-17.39-5.91-17.39,0-.74,1.32-1.34,3-1.34h0c1.63,0,1.63,0,3,1.34a27.59,27.59,0,0,1,5.91,17.39,28.86,28.86,0,0,1-5.91,17.38c-1.11,1-1.32,1.34-3,1.34h0Z" transform="translate(-81.4 -114.25)"/>
                  <path class="cls-76" d="M1367.87,153.58c-1.63,0-3-.6-3-1.34,0,0,5.91-9.11,5.91-17.38,0-9.54-5.91-17.39-5.91-17.39,0-.74,1.32-1.34,3-1.34h0c1.63,0,1.63,0,3,1.34a27.59,27.59,0,0,1,5.91,17.39,28.86,28.86,0,0,1-5.91,17.38c-1.11,1-1.32,1.34-3,1.34h0Z" transform="translate(-81.4 -114.25)"/>
                  <path class="cls-77" d="M1357.09,153.58c-1.63,0-3-.6-3-1.34,0,0,5.91-9.11,5.91-17.38,0-9.54-5.91-17.39-5.91-17.39,0-.74,1.32-1.34,3-1.34h0c1.63,0,1.63,0,3,1.34a27.59,27.59,0,0,1,5.91,17.39,28.86,28.86,0,0,1-5.91,17.38c-1.11,1-1.32,1.34-3,1.34h0Z" transform="translate(-81.4 -114.25)"/>
                  <rect class="cls-66" x="1221.62" y="33.48" width="25.8" height="7.51"/>
                  <path class="cls-67" d="M1319.43,153.58c-1.63,0-3-.6-3-1.34,0,0,5.91-9.11,5.91-17.38,0-9.54-5.91-17.39-5.91-17.39,0-.74,1.32-1.34,3-1.34h0c1.63,0,1.63,0,3,1.34a27.59,27.59,0,0,1,5.91,17.39,28.87,28.87,0,0,1-5.91,17.38c-1.11,1-1.32,1.34-3,1.34h0Z" transform="translate(-81.4 -114.25)"/>
                  <path class="cls-67" d="M1308.65,153.58c-1.63,0-3-.6-3-1.34,0,0,5.91-9.11,5.91-17.38,0-9.54-5.91-17.39-5.91-17.39,0-.74,1.32-1.34,3-1.34h0c1.64,0,1.64,0,3,1.34a27.59,27.59,0,0,1,5.91,17.39,28.86,28.86,0,0,1-5.91,17.38c-1.11,1-1.32,1.34-3,1.34h0Z" transform="translate(-81.4 -114.25)"/>
                  <path class="cls-78" d="M1321.65,153.58c-1.63,0-3-.6-3-1.34,0,0,5.91-9.11,5.91-17.38,0-9.54-5.91-17.39-5.91-17.39,0-.74,1.32-1.34,3-1.34h0c1.63,0,1.63,0,3,1.34a27.59,27.59,0,0,1,5.91,17.39,28.86,28.86,0,0,1-5.91,17.38c-1.11,1-1.32,1.34-3,1.34h0Z" transform="translate(-81.4 -114.25)"/>
                  <path class="cls-79" d="M1310.87,153.58c-1.63,0-3-.6-3-1.34,0,0,5.91-9.11,5.91-17.38,0-9.54-5.91-17.39-5.91-17.39,0-.74,1.32-1.34,3-1.34h0c1.63,0,1.63,0,3,1.34a27.59,27.59,0,0,1,5.91,17.39,28.87,28.87,0,0,1-5.91,17.38c-1.11,1-1.32,1.34-3,1.34h0Z" transform="translate(-81.4 -114.25)"/>
                  <rect class="cls-66" x="1175.4" y="33.48" width="25.8" height="7.51"/>
                  <path class="cls-67" d="M1273.21,153.58c-1.64,0-3-.6-3-1.34,0,0,5.91-9.11,5.91-17.38,0-9.54-5.91-17.39-5.91-17.39,0-.74,1.32-1.34,3-1.34h0c1.63,0,1.63,0,3,1.34a27.59,27.59,0,0,1,5.91,17.39,28.86,28.86,0,0,1-5.91,17.38c-1.11,1-1.32,1.34-3,1.34h0Z" transform="translate(-81.4 -114.25)"/>
                  <path class="cls-67" d="M1262.43,153.58c-1.63,0-3-.6-3-1.34,0,0,5.91-9.11,5.91-17.38,0-9.54-5.91-17.39-5.91-17.39,0-.74,1.32-1.34,3-1.34h0c1.63,0,1.63,0,3,1.34a27.59,27.59,0,0,1,5.91,17.39,28.86,28.86,0,0,1-5.91,17.38c-1.11,1-1.32,1.34-3,1.34h0Z" transform="translate(-81.4 -114.25)"/>
                  <path class="cls-80" d="M1275.43,153.58c-1.63,0-3-.6-3-1.34,0,0,5.91-9.11,5.91-17.38,0-9.54-5.91-17.39-5.91-17.39,0-.74,1.32-1.34,3-1.34h0c1.63,0,1.63,0,3,1.34a27.59,27.59,0,0,1,5.91,17.39,28.87,28.87,0,0,1-5.91,17.38c-1.11,1-1.32,1.34-3,1.34h0Z" transform="translate(-81.4 -114.25)"/>
                  <path class="cls-81" d="M1264.65,153.58c-1.63,0-3-.6-3-1.34,0,0,5.91-9.11,5.91-17.38,0-9.54-5.91-17.39-5.91-17.39,0-.74,1.32-1.34,3-1.34h0c1.63,0,1.63,0,3,1.34a27.59,27.59,0,0,1,5.91,17.39,28.86,28.86,0,0,1-5.91,17.38c-1.11,1-1.32,1.34-3,1.34h0Z" transform="translate(-81.4 -114.25)"/>
                  <rect class="cls-66" x="1129.17" y="33.48" width="25.8" height="7.51"/>
                  <path class="cls-67" d="M1227,153.58c-1.63,0-3-.6-3-1.34,0,0,5.91-9.11,5.91-17.38,0-9.54-5.91-17.39-5.91-17.39,0-.74,1.32-1.34,3-1.34h0c1.63,0,1.63,0,3,1.34a27.59,27.59,0,0,1,5.91,17.39,28.87,28.87,0,0,1-5.91,17.38c-1.11,1-1.32,1.34-3,1.34h0Z" transform="translate(-81.4 -114.25)"/>
                  <path class="cls-67" d="M1216.21,153.58c-1.63,0-3-.6-3-1.34,0,0,5.91-9.11,5.91-17.38,0-9.54-5.91-17.39-5.91-17.39,0-.74,1.32-1.34,3-1.34h0c1.63,0,1.63,0,3,1.34a27.59,27.59,0,0,1,5.91,17.39,28.86,28.86,0,0,1-5.91,17.38c-1.11,1-1.32,1.34-3,1.34h0Z" transform="translate(-81.4 -114.25)"/>
                  <path class="cls-82" d="M1229.21,153.58c-1.63,0-3-.6-3-1.34,0,0,5.91-9.11,5.91-17.38,0-9.54-5.91-17.39-5.91-17.39,0-.74,1.32-1.34,3-1.34h0c1.63,0,1.63,0,3,1.34a27.59,27.59,0,0,1,5.91,17.39,28.86,28.86,0,0,1-5.91,17.38c-1.11,1-1.32,1.34-3,1.34h0Z" transform="translate(-81.4 -114.25)"/>
                  <path class="cls-83" d="M1218.43,153.58c-1.63,0-3-.6-3-1.34,0,0,5.91-9.11,5.91-17.38,0-9.54-5.91-17.39-5.91-17.39,0-.74,1.32-1.34,3-1.34h0c1.63,0,1.63,0,3,1.34a27.59,27.59,0,0,1,5.91,17.39,28.86,28.86,0,0,1-5.91,17.38c-1.11,1-1.32,1.34-3,1.34h0Z" transform="translate(-81.4 -114.25)"/>
                  <rect class="cls-66" x="1082.95" y="33.48" width="25.8" height="7.51"/>
                  <path class="cls-67" d="M1180.76,153.58c-1.64,0-3-.6-3-1.34,0,0,5.91-9.11,5.91-17.38,0-9.54-5.91-17.39-5.91-17.39,0-.74,1.32-1.34,3-1.34h0c1.63,0,1.63,0,3,1.34a27.59,27.59,0,0,1,5.91,17.39,28.86,28.86,0,0,1-5.91,17.38c-1.11,1-1.32,1.34-3,1.34h0Z" transform="translate(-81.4 -114.25)"/>
                  <path class="cls-67" d="M1170,153.58c-1.63,0-3-.6-3-1.34,0,0,5.91-9.11,5.91-17.38,0-9.54-5.91-17.39-5.91-17.39,0-.74,1.32-1.34,3-1.34h0c1.63,0,1.63,0,3,1.34a27.59,27.59,0,0,1,5.91,17.39,28.86,28.86,0,0,1-5.91,17.38c-1.11,1-1.32,1.34-3,1.34h0Z" transform="translate(-81.4 -114.25)"/>
                  <path class="cls-84" d="M1183,153.58c-1.63,0-3-.6-3-1.34,0,0,5.91-9.11,5.91-17.38,0-9.54-5.91-17.39-5.91-17.39,0-.74,1.32-1.34,3-1.34h0c1.63,0,1.63,0,3,1.34a27.59,27.59,0,0,1,5.91,17.39,28.86,28.86,0,0,1-5.91,17.38c-1.11,1-1.32,1.34-3,1.34h0Z" transform="translate(-81.4 -114.25)"/>
                  <path class="cls-85" d="M1172.2,153.58c-1.63,0-3-.6-3-1.34,0,0,5.91-9.11,5.91-17.38,0-9.54-5.91-17.39-5.91-17.39,0-.74,1.32-1.34,3-1.34h0c1.63,0,1.63,0,3,1.34a27.59,27.59,0,0,1,5.91,17.39,28.86,28.86,0,0,1-5.91,17.38c-1.11,1-1.32,1.34-3,1.34h0Z" transform="translate(-81.4 -114.25)"/>
                  <rect class="cls-66" x="1036.73" y="33.48" width="25.8" height="7.51"/>
                  <path class="cls-67" d="M1134.54,153.58c-1.64,0-3-.6-3-1.34,0,0,5.91-9.11,5.91-17.38,0-9.54-5.91-17.39-5.91-17.39,0-.74,1.32-1.34,3-1.34h0c1.63,0,1.63,0,3,1.34a27.58,27.58,0,0,1,5.91,17.39,28.85,28.85,0,0,1-5.91,17.38c-1.11,1-1.32,1.34-3,1.34h0Z" transform="translate(-81.4 -114.25)"/>
                  <path class="cls-67" d="M1123.76,153.58c-1.63,0-3-.6-3-1.34,0,0,5.91-9.11,5.91-17.38,0-9.54-5.91-17.39-5.91-17.39,0-.74,1.32-1.34,3-1.34h0c1.63,0,1.63,0,3,1.34a27.59,27.59,0,0,1,5.91,17.39,28.86,28.86,0,0,1-5.91,17.38c-1.11,1-1.32,1.34-3,1.34h0Z" transform="translate(-81.4 -114.25)"/>
                  <path class="cls-86" d="M1136.76,153.58c-1.63,0-3-.6-3-1.34,0,0,5.91-9.11,5.91-17.38,0-9.54-5.91-17.39-5.91-17.39,0-.74,1.32-1.34,3-1.34h0c1.63,0,1.63,0,3,1.34a27.59,27.59,0,0,1,5.91,17.39,28.86,28.86,0,0,1-5.91,17.38c-1.11,1-1.32,1.34-3,1.34h0Z" transform="translate(-81.4 -114.25)"/>
                  <path class="cls-87" d="M1126,153.58c-1.63,0-3-.6-3-1.34,0,0,5.91-9.11,5.91-17.38,0-9.54-5.91-17.39-5.91-17.39,0-.74,1.32-1.34,3-1.34h0c1.63,0,1.63,0,3,1.34a27.59,27.59,0,0,1,5.91,17.39,28.87,28.87,0,0,1-5.91,17.38c-1.11,1-1.32,1.34-3,1.34h0Z" transform="translate(-81.4 -114.25)"/>
                  <rect class="cls-66" x="990.51" y="33.48" width="25.8" height="7.51"/>
                  <path class="cls-67" d="M1088.32,153.58c-1.63,0-3-.6-3-1.34,0,0,5.91-9.11,5.91-17.38,0-9.54-5.91-17.39-5.91-17.39,0-.74,1.32-1.34,3-1.34h0c1.63,0,1.63,0,3,1.34a27.58,27.58,0,0,1,5.92,17.39,28.85,28.85,0,0,1-5.92,17.38c-1.11,1-1.32,1.34-3,1.34h0Z" transform="translate(-81.4 -114.25)"/>
                  <path class="cls-67" d="M1077.54,153.58c-1.63,0-3-.6-3-1.34,0,0,5.91-9.11,5.91-17.38,0-9.54-5.91-17.39-5.91-17.39,0-.74,1.33-1.34,3-1.34h0c1.63,0,1.63,0,3,1.34a27.59,27.59,0,0,1,5.91,17.39,28.86,28.86,0,0,1-5.91,17.38c-1.11,1-1.32,1.34-3,1.34h0Z" transform="translate(-81.4 -114.25)"/>
                  <path class="cls-88" d="M1090.54,153.58c-1.63,0-3-.6-3-1.34,0,0,5.91-9.11,5.91-17.38,0-9.54-5.91-17.39-5.91-17.39,0-.74,1.33-1.34,3-1.34h0c1.63,0,1.63,0,3,1.34a27.59,27.59,0,0,1,5.91,17.39,28.86,28.86,0,0,1-5.91,17.38c-1.11,1-1.33,1.34-3,1.34h0Z" transform="translate(-81.4 -114.25)"/>
                  <path class="cls-89" d="M1079.76,153.58c-1.63,0-3-.6-3-1.34,0,0,5.91-9.11,5.91-17.38,0-9.54-5.91-17.39-5.91-17.39,0-.74,1.32-1.34,3-1.34h0c1.64,0,1.64,0,3,1.34a27.59,27.59,0,0,1,5.91,17.39,28.87,28.87,0,0,1-5.91,17.38c-1.11,1-1.32,1.34-3,1.34h0Z" transform="translate(-81.4 -114.25)"/>
                  <rect class="cls-66" x="944.28" y="33.48" width="25.8" height="7.51"/>
                  <path class="cls-67" d="M1042.1,153.58c-1.63,0-3-.6-3-1.34,0,0,5.91-9.11,5.91-17.38,0-9.54-5.91-17.39-5.91-17.39,0-.74,1.32-1.34,3-1.34h0c1.63,0,1.63,0,3,1.34a27.59,27.59,0,0,1,5.91,17.39,28.86,28.86,0,0,1-5.91,17.38c-1.11,1-1.32,1.34-3,1.34h0Z" transform="translate(-81.4 -114.25)"/>
                  <path class="cls-67" d="M1031.32,153.58c-1.63,0-3-.6-3-1.34,0,0,5.91-9.11,5.91-17.38,0-9.54-5.91-17.39-5.91-17.39,0-.74,1.33-1.34,3-1.34h0c1.63,0,1.63,0,3,1.34a27.59,27.59,0,0,1,5.91,17.39,28.86,28.86,0,0,1-5.91,17.38c-1.11,1-1.33,1.34-3,1.34h0Z" transform="translate(-81.4 -114.25)"/>
                  <path class="cls-90" d="M1044.32,153.58c-1.63,0-3-.6-3-1.34,0,0,5.91-9.11,5.91-17.38,0-9.54-5.91-17.39-5.91-17.39,0-.74,1.32-1.34,3-1.34h0c1.63,0,1.63,0,3,1.34a27.59,27.59,0,0,1,5.91,17.39,28.86,28.86,0,0,1-5.91,17.38c-1.11,1-1.33,1.34-3,1.34h0Z" transform="translate(-81.4 -114.25)"/>
                  <path class="cls-91" d="M1033.54,153.58c-1.63,0-3-.6-3-1.34,0,0,5.91-9.11,5.91-17.38,0-9.54-5.91-17.39-5.91-17.39,0-.74,1.32-1.34,3-1.34h0c1.63,0,1.63,0,3,1.34a27.59,27.59,0,0,1,5.91,17.39,28.87,28.87,0,0,1-5.91,17.38c-1.11,1-1.32,1.34-3,1.34h0Z" transform="translate(-81.4 -114.25)"/>
                  <rect class="cls-66" x="898.06" y="33.48" width="25.8" height="7.51"/>
                  <path class="cls-67" d="M995.88,153.58c-1.64,0-3-.6-3-1.34,0,0,5.91-9.11,5.91-17.38,0-9.54-5.91-17.39-5.91-17.39,0-.74,1.32-1.34,3-1.34h0c1.63,0,1.63,0,3,1.34a27.59,27.59,0,0,1,5.91,17.39,28.86,28.86,0,0,1-5.91,17.38c-1.11,1-1.32,1.34-3,1.34h0Z" transform="translate(-81.4 -114.25)"/>
                  <path class="cls-67" d="M985.09,153.58c-1.63,0-3-.6-3-1.34,0,0,5.91-9.11,5.91-17.38,0-9.54-5.91-17.39-5.91-17.39,0-.74,1.33-1.34,3-1.34h0c1.63,0,1.63,0,3,1.34A27.59,27.59,0,0,1,994,134.85a28.86,28.86,0,0,1-5.91,17.38c-1.11,1-1.33,1.34-3,1.34h0Z" transform="translate(-81.4 -114.25)"/>
                  <path class="cls-92" d="M998.09,153.58c-1.63,0-3-.6-3-1.34,0,0,5.91-9.11,5.91-17.38,0-9.54-5.91-17.39-5.91-17.39,0-.74,1.32-1.34,3-1.34h0c1.63,0,1.63,0,3,1.34a27.59,27.59,0,0,1,5.91,17.39,28.86,28.86,0,0,1-5.91,17.38c-1.11,1-1.32,1.34-3,1.34h0Z" transform="translate(-81.4 -114.25)"/>
                  <path class="cls-93" d="M987.32,153.58c-1.63,0-3-.6-3-1.34,0,0,5.91-9.11,5.91-17.38,0-9.54-5.91-17.39-5.91-17.39,0-.74,1.32-1.34,3-1.34h0c1.63,0,1.63,0,3,1.34a27.59,27.59,0,0,1,5.91,17.39,28.86,28.86,0,0,1-5.91,17.38c-1.11,1-1.32,1.34-3,1.34h0Z" transform="translate(-81.4 -114.25)"/>
                  <rect class="cls-66" x="851.84" y="33.48" width="25.8" height="7.51"/>
                  <path class="cls-67" d="M949.65,153.58c-1.64,0-3-.6-3-1.34,0,0,5.91-9.11,5.91-17.38,0-9.54-5.91-17.39-5.91-17.39,0-.74,1.32-1.34,3-1.34h0c1.63,0,1.63,0,3,1.34a27.59,27.59,0,0,1,5.91,17.39,28.86,28.86,0,0,1-5.91,17.38c-1.11,1-1.32,1.34-3,1.34h0Z" transform="translate(-81.4 -114.25)"/>
                  <path class="cls-67" d="M938.87,153.58c-1.63,0-3-.6-3-1.34,0,0,5.92-9.11,5.92-17.38,0-9.54-5.92-17.39-5.92-17.39,0-.74,1.33-1.34,3-1.34h0c1.63,0,1.63,0,3,1.34a27.6,27.6,0,0,1,5.91,17.39,28.87,28.87,0,0,1-5.91,17.38c-1.11,1-1.33,1.34-3,1.34h0Z" transform="translate(-81.4 -114.25)"/>
                  <path class="cls-94" d="M951.87,153.58c-1.63,0-3-.6-3-1.34,0,0,5.91-9.11,5.91-17.38,0-9.54-5.91-17.39-5.91-17.39,0-.74,1.32-1.34,3-1.34h0c1.63,0,1.63,0,3,1.34a27.59,27.59,0,0,1,5.91,17.39,28.86,28.86,0,0,1-5.91,17.38c-1.11,1-1.32,1.34-3,1.34h0Z" transform="translate(-81.4 -114.25)"/>
                  <path class="cls-95" d="M941.09,153.58c-1.63,0-3-.6-3-1.34,0,0,5.91-9.11,5.91-17.38,0-9.54-5.91-17.39-5.91-17.39,0-.74,1.32-1.34,3-1.34h0c1.64,0,1.64,0,3,1.34A27.59,27.59,0,0,1,950,134.85,28.86,28.86,0,0,1,944,152.24c-1.11,1-1.32,1.34-3,1.34h0Z" transform="translate(-81.4 -114.25)"/>
                  <rect class="cls-66" x="805.62" y="33.48" width="25.8" height="7.51"/>
                  <path class="cls-67" d="M903.43,153.58c-1.64,0-3-.6-3-1.34,0,0,5.91-9.11,5.91-17.38,0-9.54-5.91-17.39-5.91-17.39,0-.74,1.32-1.34,3-1.34h0c1.63,0,1.63,0,3,1.34a27.58,27.58,0,0,1,5.91,17.39,28.86,28.86,0,0,1-5.91,17.38c-1.11,1-1.32,1.34-3,1.34h0Z" transform="translate(-81.4 -114.25)"/>
                  <path class="cls-67" d="M892.65,153.58c-1.63,0-3-.6-3-1.34,0,0,5.91-9.11,5.91-17.38,0-9.54-5.91-17.39-5.91-17.39,0-.74,1.32-1.34,3-1.34h0c1.63,0,1.63,0,3,1.34a27.59,27.59,0,0,1,5.91,17.39,28.86,28.86,0,0,1-5.91,17.38c-1.11,1-1.33,1.34-3,1.34h0Z" transform="translate(-81.4 -114.25)"/>
                  <path class="cls-96" d="M905.65,153.58c-1.63,0-3-.6-3-1.34,0,0,5.91-9.11,5.91-17.38,0-9.54-5.91-17.39-5.91-17.39,0-.74,1.33-1.34,3-1.34h0c1.63,0,1.63,0,3,1.34a27.59,27.59,0,0,1,5.91,17.39,28.86,28.86,0,0,1-5.91,17.38c-1.11,1-1.32,1.34-3,1.34h0Z" transform="translate(-81.4 -114.25)"/>
                  <path class="cls-97" d="M894.87,153.58c-1.63,0-3-.6-3-1.34,0,0,5.91-9.11,5.91-17.38,0-9.54-5.91-17.39-5.91-17.39,0-.74,1.32-1.34,3-1.34h0c1.64,0,1.64,0,3,1.34a27.59,27.59,0,0,1,5.91,17.39,28.87,28.87,0,0,1-5.91,17.38c-1.11,1-1.32,1.34-3,1.34h0Z" transform="translate(-81.4 -114.25)"/>
                  <rect class="cls-66" x="759.39" y="33.48" width="25.8" height="7.51"/>
                  <path class="cls-67" d="M857.21,153.58c-1.64,0-3-.6-3-1.34,0,0,5.91-9.11,5.91-17.38,0-9.54-5.91-17.39-5.91-17.39,0-.74,1.32-1.34,3-1.34h0c1.63,0,1.63,0,3,1.34a27.58,27.58,0,0,1,5.91,17.39,28.85,28.85,0,0,1-5.91,17.38c-1.11,1-1.32,1.34-3,1.34h0Z" transform="translate(-81.4 -114.25)"/>
                  <path class="cls-67" d="M846.43,153.58c-1.63,0-3-.6-3-1.34,0,0,5.91-9.11,5.91-17.38,0-9.54-5.91-17.39-5.91-17.39,0-.74,1.33-1.34,3-1.34h0c1.63,0,1.63,0,3,1.34a27.59,27.59,0,0,1,5.91,17.39,28.86,28.86,0,0,1-5.91,17.38c-1.11,1-1.32,1.34-3,1.34h0Z" transform="translate(-81.4 -114.25)"/>
                  <path class="cls-98" d="M859.43,153.58c-1.63,0-3-.6-3-1.34,0,0,5.91-9.11,5.91-17.38,0-9.54-5.91-17.39-5.91-17.39,0-.74,1.33-1.34,3-1.34h0c1.63,0,1.63,0,3,1.34a27.59,27.59,0,0,1,5.91,17.39,28.86,28.86,0,0,1-5.91,17.38c-1.11,1-1.32,1.34-3,1.34h0Z" transform="translate(-81.4 -114.25)"/>
                  <path class="cls-99" d="M848.65,153.58c-1.63,0-3-.6-3-1.34,0,0,5.91-9.11,5.91-17.38,0-9.54-5.91-17.39-5.91-17.39,0-.74,1.32-1.34,3-1.34h0c1.64,0,1.64,0,3,1.34a27.59,27.59,0,0,1,5.91,17.39,28.86,28.86,0,0,1-5.91,17.38c-1.11,1-1.32,1.34-3,1.34h0Z" transform="translate(-81.4 -114.25)"/>
               </g>
               <g id="slil-2" data-name="slil">
            <polygon class="cls-100" points="707.96 2.65 694.79 29.87 704.69 29.87 717.39 10.72 707.96 2.65"></polygon>
<polygon class="cls-101" points="719.06 2.65 705.89 29.87 715.79 29.87 728.49 10.72 719.06 2.65"></polygon>
<polygon class="cls-102" points=""></polygon>
<polygon class="cls-103" points=""></polygon>
<polygon class="cls-104" points="662.14 2.65 648.97 29.87 658.87 29.87 671.57 10.72 662.14 2.65"></polygon>
<polygon class="cls-105" points="673.24 2.65 660.07 29.87 669.97 29.87 682.67 10.72 673.24 2.65"></polygon>
<polygon class="cls-106" points=""></polygon>
<polygon class="cls-107" points=""></polygon>
<polygon class="cls-108" points="616.32 2.65 603.14 29.87 613.04 29.87 625.75 10.72 616.32 2.65"></polygon>
<polygon class="cls-109" points="627.42 2.65 614.24 29.87 624.15 29.87 636.85 10.72 627.42 2.65"></polygon>
<polygon class="cls-110" points=""></polygon>
<polygon class="cls-111" points=""></polygon>
<polygon class="cls-112" points="570.5 2.65 557.32 29.87 567.22 29.87 579.93 10.72 570.5 2.65"></polygon>
<polygon class="cls-113" points="581.6 2.65 568.42 29.87 578.33 29.87 591.03 10.72 581.6 2.65"></polygon>
<polygon class="cls-114" points=""></polygon>
<polygon class="cls-115" points=""></polygon>
<polygon class="cls-116" points="524.67 2.65 511.5 29.87 521.4 29.87 534.11 10.72 524.67 2.65"></polygon>
<polygon class="cls-117" points="535.77 2.65 522.6 29.87 532.5 29.87 545.21 10.72 535.77 2.65"></polygon>
<polygon class="cls-118" points=""></polygon>
<polygon class="cls-119" points=""></polygon>
<polygon class="cls-120" points="478.85 2.65 465.68 29.87 475.58 29.87 488.29 10.72 478.85 2.65"></polygon>
<polygon class="cls-121" points="489.95 2.65 476.78 29.87 486.68 29.87 499.39 10.72 489.95 2.65"></polygon>
<polygon class="cls-122" points=""></polygon>
<polygon class="cls-123" points=""></polygon>
<polygon class="cls-124" points="433.03 2.65 419.86 29.87 429.76 29.87 442.46 10.72 433.03 2.65"></polygon>
<polygon class="cls-125" points="444.13 2.65 430.96 29.87 440.86 29.87 453.56 10.72 444.13 2.65"></polygon>
<polygon class="cls-126" points=""></polygon>
<polygon class="cls-127" points=""></polygon>
<polygon class="cls-128" points="387.21 2.65 374.04 29.87 383.94 29.87 396.64 10.72 387.21 2.65"></polygon>
<polygon class="cls-129" points="398.31 2.65 385.14 29.87 395.04 29.87 407.74 10.72 398.31 2.65"></polygon>
<polygon class="cls-130" points=""></polygon>
<polygon class="cls-131" points=""></polygon>
<polygon class="cls-132" points="340.42 1.88 327.25 29.1 337.15 29.1 349.85 9.95 340.42 1.88"></polygon>
<polygon class="cls-133" points="351.52 1.88 338.35 29.1 348.25 29.1 360.95 9.95 351.52 1.88"></polygon>
<polygon class="cls-134" points=""></polygon>
<polygon class="cls-135" points=""></polygon>
<polygon class="cls-136" points="292.49 1.88 279.31 29.1 289.21 29.1 301.92 9.95 292.49 1.88"></polygon>
<polygon class="cls-137" points="303.58 1.88 290.41 29.1 300.31 29.1 313.02 9.95 303.58 1.88"></polygon>
<polygon class="cls-138" points=""></polygon>
<polygon class="cls-139" points=""></polygon>
<polygon class="cls-140" points="246.66 0 233.49 27.22 243.39 27.22 256.1 8.07 246.66 0"></polygon>
<polygon class="cls-141" points="257.76 0 244.59 27.22 254.49 27.22 267.2 8.07 257.76 0"></polygon>
<polygon class="cls-142" points=""></polygon>
<polygon class="cls-143" points=""></polygon>
<polygon class="cls-144" points="199.06 1.88 185.88 29.1 195.78 29.1 208.49 9.95 199.06 1.88"></polygon>
<polygon class="cls-145" points="210.16 1.88 196.98 29.1 206.89 29.1 219.59 9.95 210.16 1.88"></polygon>
<polygon class="cls-146" points=""></polygon>
<polygon class="cls-147" points=""></polygon>
<polygon class="cls-148" points="153.24 1.88 140.06 29.1 149.96 29.1 162.67 9.95 153.24 1.88"></polygon>
<polygon class="cls-149" points="164.34 1.88 151.16 29.1 161.06 29.1 173.77 9.95 164.34 1.88"></polygon>
<polygon class="cls-150" points=""></polygon>
<polygon class="cls-151" points=""></polygon>
<polygon class="cls-152" points="107.42 0.37 94.24 27.58 104.14 27.58 116.85 8.44 107.42 0.37"></polygon>
<polygon class="cls-153" points="118.51 0.37 105.34 27.58 115.24 27.58 127.95 8.44 118.51 0.37"></polygon>
<polygon class="cls-154" points=""></polygon>
<polygon class="cls-155" points=""></polygon>
<polygon class="cls-156" points="63.38 0.37 50.21 27.58 60.11 27.58 72.81 8.44 63.38 0.37"></polygon>
<polygon class="cls-157" points="74.48 0.37 61.31 27.58 71.21 27.58 83.92 8.44 74.48 0.37"></polygon>
<polygon class="cls-158" points=""></polygon>
<polygon class="cls-159"></polygon>
<polygon class="cls-160" points="13.18 1.88 0 29.1 9.9 29.1 22.61 9.95 13.18 1.88"></polygon>
<polygon class="cls-161" points="24.27 1.88 11.1 29.1 21 29.1 33.71 9.95 24.27 1.88"></polygon>
<polygon class="cls-162" points=""></polygon>
<polygon class="cls-163" points=""></polygon>
                  <rect class="cls-66" x="705.29" y="33.48" width="25.8" height="7.5"/>
                  <path class="cls-67" d="M803.1,153.58c-1.63,0-3-.6-3-1.34,0,0,5.91-9.11,5.91-17.38,0-9.53-5.91-17.39-5.91-17.39,0-.74,1.32-1.34,3-1.34h0c1.63,0,1.63,0,3,1.34A27.59,27.59,0,0,1,812,134.85a28.86,28.86,0,0,1-5.91,17.38c-1.11,1-1.32,1.34-3,1.34h0Z" transform="translate(-81.4 -114.25)"/>
                  <path class="cls-67" d="M792.32,153.58c-1.63,0-3-.6-3-1.34,0,0,5.91-9.11,5.91-17.38,0-9.53-5.91-17.39-5.91-17.39,0-.74,1.32-1.34,3-1.34h0c1.63,0,1.63,0,3,1.34a27.59,27.59,0,0,1,5.91,17.39,28.87,28.87,0,0,1-5.91,17.38c-1.11,1-1.32,1.34-3,1.34h0Z" transform="translate(-81.4 -114.25)"/>
                  <path class="cls-164" d="M805.32,153.58c-1.63,0-3-.6-3-1.34,0,0,5.91-9.11,5.91-17.38,0-9.53-5.91-17.39-5.91-17.39,0-.74,1.32-1.34,3-1.34h0c1.63,0,1.63,0,3,1.34a27.59,27.59,0,0,1,5.91,17.39,28.86,28.86,0,0,1-5.91,17.38c-1.11,1-1.32,1.34-3,1.34h0Z" transform="translate(-81.4 -114.25)"/>
                  <path class="cls-165" d="M794.54,153.58c-1.63,0-3-.6-3-1.34,0,0,5.91-9.11,5.91-17.38,0-9.53-5.91-17.39-5.91-17.39,0-.74,1.32-1.34,3-1.34h0c1.63,0,1.63,0,3,1.34a27.58,27.58,0,0,1,5.91,17.39,28.86,28.86,0,0,1-5.91,17.38c-1.11,1-1.32,1.34-3,1.34h0Z" transform="translate(-81.4 -114.25)"/>
                  <rect class="cls-66" x="659.07" y="33.48" width="25.8" height="7.5"/>
                  <path class="cls-67" d="M756.88,153.58c-1.63,0-3-.6-3-1.34,0,0,5.91-9.11,5.91-17.38,0-9.53-5.91-17.39-5.91-17.39,0-.74,1.32-1.34,3-1.34h0c1.63,0,1.63,0,3,1.34a27.59,27.59,0,0,1,5.91,17.39,28.87,28.87,0,0,1-5.91,17.38c-1.11,1-1.32,1.34-3,1.34h0Z" transform="translate(-81.4 -114.25)"/>
                  <path class="cls-67" d="M746.1,153.58c-1.63,0-3-.6-3-1.34,0,0,5.91-9.11,5.91-17.38,0-9.53-5.91-17.39-5.91-17.39,0-.74,1.32-1.34,3-1.34h0c1.63,0,1.63,0,3,1.34A27.59,27.59,0,0,1,755,134.85a28.86,28.86,0,0,1-5.91,17.38c-1.11,1-1.32,1.34-3,1.34h0Z" transform="translate(-81.4 -114.25)"/>
                  <path class="cls-166" d="M759.1,153.58c-1.63,0-3-.6-3-1.34,0,0,5.91-9.11,5.91-17.38,0-9.53-5.91-17.39-5.91-17.39,0-.74,1.32-1.34,3-1.34h0c1.63,0,1.63,0,3,1.34A27.58,27.58,0,0,1,768,134.85a28.86,28.86,0,0,1-5.91,17.38c-1.11,1-1.32,1.34-3,1.34h0Z" transform="translate(-81.4 -114.25)"/>
                  <path class="cls-167" d="M748.32,153.58c-1.63,0-3-.6-3-1.34,0,0,5.91-9.11,5.91-17.38,0-9.53-5.91-17.39-5.91-17.39,0-.74,1.32-1.34,3-1.34h0c1.63,0,1.63,0,3,1.34a27.59,27.59,0,0,1,5.91,17.39,28.86,28.86,0,0,1-5.91,17.38c-1.11,1-1.32,1.34-3,1.34h0Z" transform="translate(-81.4 -114.25)"/>
                  <rect class="cls-66" x="612.85" y="33.48" width="25.8" height="7.51"/>
                  <path class="cls-67" d="M710.66,153.58c-1.63,0-3-.6-3-1.34,0,0,5.91-9.11,5.91-17.38,0-9.53-5.91-17.39-5.91-17.39,0-.74,1.32-1.34,3-1.34h0c1.63,0,1.63,0,3,1.34a27.59,27.59,0,0,1,5.91,17.39,28.86,28.86,0,0,1-5.91,17.38c-1.11,1-1.32,1.34-3,1.34h0Z" transform="translate(-81.4 -114.25)"/>
                  <path class="cls-67" d="M699.88,153.58c-1.63,0-3-.6-3-1.34,0,0,5.91-9.11,5.91-17.38,0-9.54-5.91-17.39-5.91-17.39,0-.74,1.32-1.34,3-1.34h0c1.63,0,1.63,0,3,1.34a27.6,27.6,0,0,1,5.91,17.39,28.86,28.86,0,0,1-5.91,17.38c-1.11,1-1.32,1.34-3,1.34h0Z" transform="translate(-81.4 -114.25)"/>
                  <path class="cls-168" d="M712.88,153.58c-1.63,0-3-.6-3-1.34,0,0,5.91-9.11,5.91-17.38,0-9.53-5.91-17.39-5.91-17.39,0-.74,1.32-1.34,3-1.34h0c1.63,0,1.63,0,3,1.34a27.59,27.59,0,0,1,5.91,17.39,28.86,28.86,0,0,1-5.91,17.38c-1.11,1-1.32,1.34-3,1.34h0Z" transform="translate(-81.4 -114.25)"/>
                  <path class="cls-169" d="M702.1,153.58c-1.64,0-3-.6-3-1.34,0,0,5.91-9.11,5.91-17.38,0-9.54-5.91-17.39-5.91-17.39,0-.74,1.32-1.34,3-1.34h0c1.63,0,1.63,0,3,1.34A27.59,27.59,0,0,1,711,134.85a28.85,28.85,0,0,1-5.91,17.38c-1.11,1-1.32,1.34-3,1.34h0Z" transform="translate(-81.4 -114.25)"/>
                  <rect class="cls-66" x="566.62" y="33.48" width="25.8" height="7.51"/>
                  <path class="cls-67" d="M664.44,153.58c-1.64,0-3-.6-3-1.34,0,0,5.91-9.11,5.91-17.38,0-9.54-5.91-17.39-5.91-17.39,0-.74,1.32-1.34,3-1.34h0c1.63,0,1.63,0,3,1.34a27.59,27.59,0,0,1,5.91,17.39,28.86,28.86,0,0,1-5.91,17.38c-1.11,1-1.32,1.34-3,1.34h0Z" transform="translate(-81.4 -114.25)"/>
                  <path class="cls-67" d="M653.66,153.58c-1.64,0-3-.6-3-1.34,0,0,5.91-9.11,5.91-17.38,0-9.54-5.91-17.39-5.91-17.39,0-.74,1.32-1.34,3-1.34h0c1.63,0,1.63,0,3,1.34a27.58,27.58,0,0,1,5.91,17.39,28.86,28.86,0,0,1-5.91,17.38c-1.11,1-1.32,1.34-3,1.34h0Z" transform="translate(-81.4 -114.25)"/>
                  <path class="cls-170" d="M666.66,153.58c-1.63,0-3-.6-3-1.34,0,0,5.91-9.11,5.91-17.38,0-9.54-5.91-17.39-5.91-17.39,0-.74,1.32-1.34,3-1.34h0c1.63,0,1.63,0,3,1.34a27.59,27.59,0,0,1,5.91,17.39,28.86,28.86,0,0,1-5.91,17.38c-1.11,1-1.32,1.34-3,1.34h0Z" transform="translate(-81.4 -114.25)"/>
                  <path class="cls-171" d="M655.88,153.58c-1.63,0-3-.6-3-1.34,0,0,5.91-9.11,5.91-17.38,0-9.54-5.91-17.39-5.91-17.39,0-.74,1.32-1.34,3-1.34h0c1.63,0,1.63,0,3,1.34a27.59,27.59,0,0,1,5.91,17.39,28.87,28.87,0,0,1-5.91,17.38c-1.11,1-1.32,1.34-3,1.34h0Z" transform="translate(-81.4 -114.25)"/>
                  <rect class="cls-66" x="520.4" y="33.48" width="25.8" height="7.51"/>
                  <path class="cls-67" d="M618.21,153.58c-1.63,0-3-.6-3-1.34,0,0,5.91-9.11,5.91-17.38,0-9.54-5.91-17.39-5.91-17.39,0-.74,1.32-1.34,3-1.34h0c1.63,0,1.63,0,3,1.34a27.59,27.59,0,0,1,5.91,17.39,28.86,28.86,0,0,1-5.91,17.38c-1.11,1-1.32,1.34-3,1.34h0Z" transform="translate(-81.4 -114.25)"/>
                  <path class="cls-67" d="M607.44,153.58c-1.63,0-3-.6-3-1.34,0,0,5.91-9.11,5.91-17.38,0-9.54-5.91-17.39-5.91-17.39,0-.74,1.32-1.34,3-1.34h0c1.63,0,1.63,0,3,1.34a27.59,27.59,0,0,1,5.91,17.39,28.86,28.86,0,0,1-5.91,17.38c-1.11,1-1.32,1.34-3,1.34h0Z" transform="translate(-81.4 -114.25)"/>
                  <path class="cls-172" d="M620.44,153.58c-1.63,0-3-.6-3-1.34,0,0,5.91-9.11,5.91-17.38,0-9.54-5.91-17.39-5.91-17.39,0-.74,1.32-1.34,3-1.34h0c1.63,0,1.63,0,3,1.34a27.59,27.59,0,0,1,5.91,17.39,28.86,28.86,0,0,1-5.91,17.38c-1.11,1-1.32,1.34-3,1.34h0Z" transform="translate(-81.4 -114.25)"/>
                  <path class="cls-173" d="M609.65,153.58c-1.63,0-3-.6-3-1.34,0,0,5.91-9.11,5.91-17.38,0-9.54-5.91-17.39-5.91-17.39,0-.74,1.32-1.34,3-1.34h0c1.63,0,1.63,0,3,1.34a27.59,27.59,0,0,1,5.91,17.39,28.86,28.86,0,0,1-5.91,17.38c-1.11,1-1.32,1.34-3,1.34h0Z" transform="translate(-81.4 -114.25)"/>
                  <rect class="cls-66" x="474.18" y="33.48" width="25.8" height="7.51"/>
                  <path class="cls-67" d="M572,153.58c-1.63,0-3-.6-3-1.34,0,0,5.91-9.11,5.91-17.38,0-9.54-5.91-17.39-5.91-17.39,0-.74,1.32-1.34,3-1.34h0c1.63,0,1.63,0,3,1.34a27.59,27.59,0,0,1,5.91,17.39,28.87,28.87,0,0,1-5.91,17.38c-1.11,1-1.32,1.34-3,1.34h0Z" transform="translate(-81.4 -114.25)"/>
                  <path class="cls-67" d="M561.21,153.58c-1.63,0-3-.6-3-1.34,0,0,5.91-9.11,5.91-17.38,0-9.54-5.91-17.39-5.91-17.39,0-.74,1.32-1.34,3-1.34h0c1.64,0,1.64,0,3,1.34a27.59,27.59,0,0,1,5.91,17.39,28.86,28.86,0,0,1-5.91,17.38c-1.11,1-1.32,1.34-3,1.34h0Z" transform="translate(-81.4 -114.25)"/>
                  <path class="cls-174" d="M574.21,153.58c-1.63,0-3-.6-3-1.34,0,0,5.91-9.11,5.91-17.38,0-9.54-5.91-17.39-5.91-17.39,0-.74,1.32-1.34,3-1.34h0c1.63,0,1.63,0,3,1.34a27.59,27.59,0,0,1,5.91,17.39,28.86,28.86,0,0,1-5.91,17.38c-1.11,1-1.32,1.34-3,1.34h0Z" transform="translate(-81.4 -114.25)"/>
                  <path class="cls-175" d="M563.43,153.58c-1.63,0-3-.6-3-1.34,0,0,5.91-9.11,5.91-17.38,0-9.54-5.91-17.39-5.91-17.39,0-.74,1.32-1.34,3-1.34h0c1.63,0,1.63,0,3,1.34a27.59,27.59,0,0,1,5.91,17.39,28.87,28.87,0,0,1-5.91,17.38c-1.11,1-1.32,1.34-3,1.34h0Z" transform="translate(-81.4 -114.25)"/>
                  <rect class="cls-66" x="427.96" y="33.48" width="25.8" height="7.51"/>
                  <path class="cls-67" d="M525.77,153.58c-1.64,0-3-.6-3-1.34,0,0,5.91-9.11,5.91-17.38,0-9.54-5.91-17.39-5.91-17.39,0-.74,1.32-1.34,3-1.34h0c1.63,0,1.63,0,3,1.34a27.59,27.59,0,0,1,5.91,17.39,28.86,28.86,0,0,1-5.91,17.38c-1.11,1-1.32,1.34-3,1.34h0Z" transform="translate(-81.4 -114.25)"/>
                  <path class="cls-67" d="M515,153.58c-1.63,0-3-.6-3-1.34,0,0,5.91-9.11,5.91-17.38,0-9.54-5.91-17.39-5.91-17.39,0-.74,1.32-1.34,3-1.34h0c1.63,0,1.63,0,3,1.34a27.59,27.59,0,0,1,5.91,17.39,28.86,28.86,0,0,1-5.91,17.38c-1.11,1-1.32,1.34-3,1.34h0Z" transform="translate(-81.4 -114.25)"/>
                  <path class="cls-176" d="M528,153.58c-1.63,0-3-.6-3-1.34,0,0,5.91-9.11,5.91-17.38,0-9.54-5.91-17.39-5.91-17.39,0-.74,1.32-1.34,3-1.34h0c1.63,0,1.63,0,3,1.34a27.59,27.59,0,0,1,5.91,17.39,28.87,28.87,0,0,1-5.91,17.38c-1.11,1-1.32,1.34-3,1.34h0Z" transform="translate(-81.4 -114.25)"/>
                  <path class="cls-177" d="M517.21,153.58c-1.63,0-3-.6-3-1.34,0,0,5.91-9.11,5.91-17.38,0-9.54-5.91-17.39-5.91-17.39,0-.74,1.32-1.34,3-1.34h0c1.63,0,1.63,0,3,1.34a27.59,27.59,0,0,1,5.91,17.39,28.86,28.86,0,0,1-5.91,17.38c-1.11,1-1.32,1.34-3,1.34h0Z" transform="translate(-81.4 -114.25)"/>
                  <rect class="cls-66" x="381.74" y="33.48" width="25.8" height="7.51"/>
                  <path class="cls-67" d="M479.55,153.58c-1.63,0-3-.6-3-1.34,0,0,5.91-9.11,5.91-17.38,0-9.54-5.91-17.39-5.91-17.39,0-.74,1.32-1.34,3-1.34h0c1.63,0,1.63,0,3,1.34a27.59,27.59,0,0,1,5.91,17.39,28.87,28.87,0,0,1-5.91,17.38c-1.11,1-1.32,1.34-3,1.34h0Z" transform="translate(-81.4 -114.25)"/>
                  <path class="cls-67" d="M468.77,153.58c-1.63,0-3-.6-3-1.34,0,0,5.91-9.11,5.91-17.38,0-9.54-5.91-17.39-5.91-17.39,0-.74,1.32-1.34,3-1.34h0c1.63,0,1.63,0,3,1.34a27.59,27.59,0,0,1,5.91,17.39,28.86,28.86,0,0,1-5.91,17.38c-1.11,1-1.32,1.34-3,1.34h0Z" transform="translate(-81.4 -114.25)"/>
                  <path class="cls-178" d="M481.77,153.58c-1.63,0-3-.6-3-1.34,0,0,5.91-9.11,5.91-17.38,0-9.54-5.91-17.39-5.91-17.39,0-.74,1.32-1.34,3-1.34h0c1.63,0,1.63,0,3,1.34a27.59,27.59,0,0,1,5.91,17.39,28.86,28.86,0,0,1-5.91,17.38c-1.11,1-1.32,1.34-3,1.34h0Z" transform="translate(-81.4 -114.25)"/>
                  <path class="cls-179" d="M471,153.58c-1.63,0-3-.6-3-1.34,0,0,5.91-9.11,5.91-17.38,0-9.54-5.91-17.39-5.91-17.39,0-.74,1.32-1.34,3-1.34h0c1.63,0,1.63,0,3,1.34a27.59,27.59,0,0,1,5.91,17.39,28.86,28.86,0,0,1-5.91,17.38c-1.11,1-1.32,1.34-3,1.34h0Z" transform="translate(-81.4 -114.25)"/>
                  <rect class="cls-66" x="335.52" y="33.48" width="25.8" height="7.51"/>
                  <path class="cls-67" d="M433.33,153.58c-1.64,0-3-.6-3-1.34,0,0,5.91-9.11,5.91-17.38,0-9.54-5.91-17.39-5.91-17.39,0-.74,1.32-1.34,3-1.34h0c1.63,0,1.63,0,3,1.34a27.59,27.59,0,0,1,5.91,17.39,28.86,28.86,0,0,1-5.91,17.38c-1.11,1-1.32,1.34-3,1.34h0Z" transform="translate(-81.4 -114.25)"/>
                  <path class="cls-67" d="M422.55,153.58c-1.63,0-3-.6-3-1.34,0,0,5.91-9.11,5.91-17.38,0-9.54-5.91-17.39-5.91-17.39,0-.74,1.32-1.34,3-1.34h0c1.63,0,1.63,0,3,1.34a27.59,27.59,0,0,1,5.91,17.39,28.86,28.86,0,0,1-5.91,17.38c-1.11,1-1.32,1.34-3,1.34h0Z" transform="translate(-81.4 -114.25)"/>
                  <path class="cls-180" d="M435.55,153.58c-1.63,0-3-.6-3-1.34,0,0,5.91-9.11,5.91-17.38,0-9.54-5.91-17.39-5.91-17.39,0-.74,1.32-1.34,3-1.34h0c1.63,0,1.63,0,3,1.34a27.59,27.59,0,0,1,5.91,17.39,28.86,28.86,0,0,1-5.91,17.38c-1.11,1-1.32,1.34-3,1.34h0Z" transform="translate(-81.4 -114.25)"/>
                  <path class="cls-181" d="M424.77,153.58c-1.63,0-3-.6-3-1.34,0,0,5.91-9.11,5.91-17.38,0-9.54-5.91-17.39-5.91-17.39,0-.74,1.32-1.34,3-1.34h0c1.63,0,1.63,0,3,1.34a27.59,27.59,0,0,1,5.91,17.39,28.86,28.86,0,0,1-5.91,17.38c-1.11,1-1.32,1.34-3,1.34h0Z" transform="translate(-81.4 -114.25)"/>
                  <rect class="cls-66" x="289.29" y="33.48" width="25.8" height="7.51"/>
                  <path class="cls-67" d="M387.11,153.58c-1.64,0-3-.6-3-1.34,0,0,5.91-9.11,5.91-17.38,0-9.54-5.91-17.39-5.91-17.39,0-.74,1.32-1.34,3-1.34h0c1.63,0,1.63,0,3,1.34A27.58,27.58,0,0,1,396,134.85a28.85,28.85,0,0,1-5.91,17.38c-1.11,1-1.32,1.34-3,1.34h0Z" transform="translate(-81.4 -114.25)"/>
                  <path class="cls-67" d="M376.33,153.58c-1.63,0-3-.6-3-1.34,0,0,5.91-9.11,5.91-17.38,0-9.54-5.91-17.39-5.91-17.39,0-.74,1.32-1.34,3-1.34h0c1.63,0,1.63,0,3,1.34a27.59,27.59,0,0,1,5.91,17.39,28.86,28.86,0,0,1-5.91,17.38c-1.11,1-1.32,1.34-3,1.34h0Z" transform="translate(-81.4 -114.25)"/>
                  <path class="cls-182" d="M389.33,153.58c-1.63,0-3-.6-3-1.34,0,0,5.91-9.11,5.91-17.38,0-9.54-5.91-17.39-5.91-17.39,0-.74,1.32-1.34,3-1.34h0c1.63,0,1.63,0,3,1.34a27.59,27.59,0,0,1,5.91,17.39,28.86,28.86,0,0,1-5.91,17.38c-1.11,1-1.32,1.34-3,1.34h0Z" transform="translate(-81.4 -114.25)"/>
                  <path class="cls-183" d="M378.55,153.58c-1.63,0-3-.6-3-1.34,0,0,5.91-9.11,5.91-17.38,0-9.54-5.91-17.39-5.91-17.39,0-.74,1.32-1.34,3-1.34h0c1.63,0,1.63,0,3,1.34a27.59,27.59,0,0,1,5.91,17.39,28.87,28.87,0,0,1-5.91,17.38c-1.11,1-1.32,1.34-3,1.34h0Z" transform="translate(-81.4 -114.25)"/>
                  <rect class="cls-66" x="243.07" y="33.48" width="25.8" height="7.51"/>
                  <path class="cls-67" d="M340.88,153.58c-1.63,0-3-.6-3-1.34,0,0,5.91-9.11,5.91-17.38,0-9.54-5.91-17.39-5.91-17.39,0-.74,1.32-1.34,3-1.34h0c1.63,0,1.63,0,3,1.34a27.58,27.58,0,0,1,5.92,17.39,28.85,28.85,0,0,1-5.92,17.38c-1.11,1-1.32,1.34-3,1.34h0Z" transform="translate(-81.4 -114.25)"/>
                  <path class="cls-67" d="M330.1,153.58c-1.63,0-3-.6-3-1.34,0,0,5.91-9.11,5.91-17.38,0-9.54-5.91-17.39-5.91-17.39,0-.74,1.33-1.34,3-1.34h0c1.63,0,1.63,0,3,1.34A27.59,27.59,0,0,1,339,134.85a28.86,28.86,0,0,1-5.91,17.38c-1.11,1-1.32,1.34-3,1.34h0Z" transform="translate(-81.4 -114.25)"/>
                  <path class="cls-184" d="M343.1,153.58c-1.63,0-3-.6-3-1.34,0,0,5.91-9.11,5.91-17.38,0-9.54-5.91-17.39-5.91-17.39,0-.74,1.33-1.34,3-1.34h0c1.63,0,1.63,0,3,1.34A27.59,27.59,0,0,1,352,134.85a28.86,28.86,0,0,1-5.91,17.38c-1.11,1-1.33,1.34-3,1.34h0Z" transform="translate(-81.4 -114.25)"/>
                  <path class="cls-185" d="M332.32,153.58c-1.63,0-3-.6-3-1.34,0,0,5.91-9.11,5.91-17.38,0-9.54-5.91-17.39-5.91-17.39,0-.74,1.32-1.34,3-1.34h0c1.64,0,1.64,0,3,1.34a27.59,27.59,0,0,1,5.91,17.39,28.87,28.87,0,0,1-5.91,17.38c-1.11,1-1.32,1.34-3,1.34h0Z" transform="translate(-81.4 -114.25)"/>
                  <rect class="cls-66" x="196.85" y="33.48" width="25.8" height="7.51"/>
                  <path class="cls-67" d="M294.66,153.58c-1.63,0-3-.6-3-1.34,0,0,5.91-9.11,5.91-17.38,0-9.54-5.91-17.39-5.91-17.39,0-.74,1.32-1.34,3-1.34h0c1.63,0,1.63,0,3,1.34a27.59,27.59,0,0,1,5.91,17.39,28.86,28.86,0,0,1-5.91,17.38c-1.11,1-1.32,1.34-3,1.34h0Z" transform="translate(-81.4 -114.25)"/>
                  <path class="cls-67" d="M283.88,153.58c-1.63,0-3-.6-3-1.34,0,0,5.91-9.11,5.91-17.38,0-9.54-5.91-17.39-5.91-17.39,0-.74,1.33-1.34,3-1.34h0c1.63,0,1.63,0,3,1.34a27.59,27.59,0,0,1,5.91,17.39,28.86,28.86,0,0,1-5.91,17.38c-1.11,1-1.33,1.34-3,1.34h0Z" transform="translate(-81.4 -114.25)"/>
                  <path class="cls-186" d="M296.88,153.58c-1.63,0-3-.6-3-1.34,0,0,5.91-9.11,5.91-17.38,0-9.54-5.91-17.39-5.91-17.39,0-.74,1.32-1.34,3-1.34h0c1.63,0,1.63,0,3,1.34a27.59,27.59,0,0,1,5.91,17.39,28.86,28.86,0,0,1-5.91,17.38c-1.11,1-1.33,1.34-3,1.34h0Z" transform="translate(-81.4 -114.25)"/>
                  <path class="cls-187" d="M286.1,153.58c-1.63,0-3-.6-3-1.34,0,0,5.91-9.11,5.91-17.38,0-9.54-5.91-17.39-5.91-17.39,0-.74,1.32-1.34,3-1.34h0c1.63,0,1.63,0,3,1.34A27.59,27.59,0,0,1,295,134.85a28.87,28.87,0,0,1-5.91,17.38c-1.11,1-1.32,1.34-3,1.34h0Z" transform="translate(-81.4 -114.25)"/>
                  <rect class="cls-66" x="150.63" y="33.48" width="25.8" height="7.51"/>
                  <path class="cls-67" d="M248.44,153.58c-1.64,0-3-.6-3-1.34,0,0,5.91-9.11,5.91-17.38,0-9.54-5.91-17.39-5.91-17.39,0-.74,1.32-1.34,3-1.34h0c1.63,0,1.63,0,3,1.34a27.59,27.59,0,0,1,5.91,17.39,28.86,28.86,0,0,1-5.91,17.38c-1.11,1-1.32,1.34-3,1.34h0Z" transform="translate(-81.4 -114.25)"/>
                  <path class="cls-67" d="M237.66,153.58c-1.63,0-3-.6-3-1.34,0,0,5.91-9.11,5.91-17.38,0-9.54-5.91-17.39-5.91-17.39,0-.74,1.33-1.34,3-1.34h0c1.63,0,1.63,0,3,1.34a27.59,27.59,0,0,1,5.91,17.39,28.86,28.86,0,0,1-5.91,17.38c-1.11,1-1.33,1.34-3,1.34h0Z" transform="translate(-81.4 -114.25)"/>
                  <path class="cls-188" d="M250.66,153.58c-1.63,0-3-.6-3-1.34,0,0,5.91-9.11,5.91-17.38,0-9.54-5.91-17.39-5.91-17.39,0-.74,1.32-1.34,3-1.34h0c1.63,0,1.63,0,3,1.34a27.59,27.59,0,0,1,5.91,17.39,28.86,28.86,0,0,1-5.91,17.38c-1.11,1-1.32,1.34-3,1.34h0Z" transform="translate(-81.4 -114.25)"/>
                  <path class="cls-189" d="M239.88,153.58c-1.63,0-3-.6-3-1.34,0,0,5.91-9.11,5.91-17.38,0-9.54-5.91-17.39-5.91-17.39,0-.74,1.32-1.34,3-1.34h0c1.63,0,1.63,0,3,1.34a27.59,27.59,0,0,1,5.91,17.39,28.86,28.86,0,0,1-5.91,17.38c-1.11,1-1.32,1.34-3,1.34h0Z" transform="translate(-81.4 -114.25)"/>
                  <rect class="cls-66" x="104.4" y="33.48" width="25.8" height="7.51"/>
                  <path class="cls-67" d="M202.22,153.58c-1.64,0-3-.6-3-1.34,0,0,5.91-9.11,5.91-17.38,0-9.54-5.91-17.39-5.91-17.39,0-.74,1.32-1.34,3-1.34h0c1.63,0,1.63,0,3,1.34a27.59,27.59,0,0,1,5.91,17.39,28.86,28.86,0,0,1-5.91,17.38c-1.11,1-1.32,1.34-3,1.34h0Z" transform="translate(-81.4 -114.25)"/>
                  <path class="cls-67" d="M191.44,153.58c-1.63,0-3-.6-3-1.34,0,0,5.92-9.11,5.92-17.38,0-9.54-5.92-17.39-5.92-17.39,0-.74,1.33-1.34,3-1.34h0c1.63,0,1.63,0,3,1.34a27.6,27.6,0,0,1,5.91,17.39,28.87,28.87,0,0,1-5.91,17.38c-1.11,1-1.33,1.34-3,1.34h0Z" transform="translate(-81.4 -114.25)"/>
                  <path class="cls-190" d="M204.43,153.58c-1.63,0-3-.6-3-1.34,0,0,5.91-9.11,5.91-17.38,0-9.54-5.91-17.39-5.91-17.39,0-.74,1.32-1.34,3-1.34h0c1.63,0,1.63,0,3,1.34a27.59,27.59,0,0,1,5.91,17.39,28.86,28.86,0,0,1-5.91,17.38c-1.11,1-1.32,1.34-3,1.34h0Z" transform="translate(-81.4 -114.25)"/>
                  <path class="cls-191" d="M193.66,153.58c-1.63,0-3-.6-3-1.34,0,0,5.91-9.11,5.91-17.38,0-9.54-5.91-17.39-5.91-17.39,0-.74,1.32-1.34,3-1.34h0c1.64,0,1.64,0,3,1.34a27.59,27.59,0,0,1,5.91,17.39,28.86,28.86,0,0,1-5.91,17.38c-1.11,1-1.32,1.34-3,1.34h0Z" transform="translate(-81.4 -114.25)"/>
                  <rect class="cls-66" x="58.18" y="33.48" width="25.8" height="7.51"/>
                  <path class="cls-67" d="M156,153.58c-1.64,0-3-.6-3-1.34,0,0,5.91-9.11,5.91-17.38,0-9.54-5.91-17.39-5.91-17.39,0-.74,1.32-1.34,3-1.34h0c1.63,0,1.63,0,3,1.34a27.58,27.58,0,0,1,5.91,17.39,28.86,28.86,0,0,1-5.91,17.38c-1.11,1-1.32,1.34-3,1.34h0Z" transform="translate(-81.4 -114.25)"/>
                  <path class="cls-67" d="M145.21,153.58c-1.63,0-3-.6-3-1.34,0,0,5.91-9.11,5.91-17.38,0-9.54-5.91-17.39-5.91-17.39,0-.74,1.32-1.34,3-1.34h0c1.63,0,1.63,0,3,1.34a27.59,27.59,0,0,1,5.91,17.39,28.86,28.86,0,0,1-5.91,17.38c-1.11,1-1.33,1.34-3,1.34h0Z" transform="translate(-81.4 -114.25)"/>
                  <path class="cls-192" d="M158.21,153.58c-1.63,0-3-.6-3-1.34,0,0,5.91-9.11,5.91-17.38,0-9.54-5.91-17.39-5.91-17.39,0-.74,1.33-1.34,3-1.34h0c1.63,0,1.63,0,3,1.34a27.59,27.59,0,0,1,5.91,17.39,28.86,28.86,0,0,1-5.91,17.38c-1.11,1-1.32,1.34-3,1.34h0Z" transform="translate(-81.4 -114.25)"/>
                  <path class="cls-193" d="M147.43,153.58c-1.63,0-3-.6-3-1.34,0,0,5.91-9.11,5.91-17.38,0-9.54-5.91-17.39-5.91-17.39,0-.74,1.32-1.34,3-1.34h0c1.64,0,1.64,0,3,1.34a27.59,27.59,0,0,1,5.91,17.39,28.87,28.87,0,0,1-5.91,17.38c-1.11,1-1.32,1.34-3,1.34h0Z" transform="translate(-81.4 -114.25)"/>
                  <rect class="cls-66" x="11.96" y="33.48" width="25.8" height="7.51"/>
                  <path class="cls-67" d="M109.77,153.58c-1.64,0-3-.6-3-1.34,0,0,5.91-9.11,5.91-17.38,0-9.54-5.91-17.39-5.91-17.39,0-.74,1.32-1.34,3-1.34h0c1.63,0,1.63,0,3,1.34a27.58,27.58,0,0,1,5.91,17.39,28.85,28.85,0,0,1-5.91,17.38c-1.11,1-1.32,1.34-3,1.34h0Z" transform="translate(-81.4 -114.25)"/>
                  <path class="cls-67" d="M99,153.58c-1.63,0-3-.6-3-1.34,0,0,5.91-9.11,5.91-17.38,0-9.54-5.91-17.39-5.91-17.39,0-.74,1.33-1.34,3-1.34h0c1.63,0,1.63,0,3,1.34a27.59,27.59,0,0,1,5.91,17.39,28.86,28.86,0,0,1-5.91,17.38c-1.11,1-1.32,1.34-3,1.34h0Z" transform="translate(-81.4 -114.25)"/>
                  <path class="cls-194" d="M112,153.58c-1.63,0-3-.6-3-1.34,0,0,5.91-9.11,5.91-17.38,0-9.54-5.91-17.39-5.91-17.39,0-.74,1.33-1.34,3-1.34h0c1.63,0,1.63,0,3,1.34a27.59,27.59,0,0,1,5.91,17.39,28.86,28.86,0,0,1-5.91,17.38c-1.11,1-1.32,1.34-3,1.34h0Z" transform="translate(-81.4 -114.25)"/>
                  <path class="cls-195" d="M101.21,153.58c-1.63,0-3-.6-3-1.34,0,0,5.91-9.11,5.91-17.38,0-9.54-5.91-17.39-5.91-17.39,0-.74,1.32-1.34,3-1.34h0c1.64,0,1.64,0,3,1.34a27.59,27.59,0,0,1,5.91,17.39,28.86,28.86,0,0,1-5.91,17.38c-1.11,1-1.32,1.34-3,1.34h0Z" transform="translate(-81.4 -114.25)"/>
               </g>
            </g>
         </g>
      </g>
   </g>
</svg>