<svg id="Layer_1" data-name="Layer 1" xmlns="http://www.w3.org/2000/svg" xmlns:xlink="http://www.w3.org/1999/xlink" viewBox="0 0 15.55 16.17"><defs><linearGradient id="linear-gradient" x1="55.13" y1="347.2" x2="68.94" y2="347.2" gradientUnits="userSpaceOnUse"><stop offset="0" stop-color="#009fe3"/><stop offset="0.04" stop-color="#0da6e6"/><stop offset="0.13" stop-color="#22b2ea"/><stop offset="0.23" stop-color="#31bbed"/><stop offset="0.34" stop-color="#39bfee"/><stop offset="0.52" stop-color="#3cc1ef"/><stop offset="0.63" stop-color="#37beee"/><stop offset="0.77" stop-color="#28b6eb"/><stop offset="0.92" stop-color="#0fa8e6"/><stop offset="1" stop-color="#009fe3"/></linearGradient><linearGradient id="linear-gradient-2" x1="54.27" y1="338.79" x2="69.82" y2="338.79" xlink:href="#linear-gradient"/><linearGradient id="linear-gradient-3" x1="65.21" y1="340.6" x2="65.47" y2="340.6" xlink:href="#linear-gradient"/><linearGradient id="linear-gradient-4" x1="61.61" y1="352.28" x2="61.74" y2="352.28" xlink:href="#linear-gradient"/></defs><title>trash</title><path d="M61.74,352.33c0.6,0.15.71-.1,0.7-0.6,0-3.46,0-6.92,0-10.38,0-.63.2-0.75,0.85-0.73,1.6,0,1.62,0,1.53,1.41-0.22,3.25-.46,6.49-0.68,9.74,0,0.22-.28.56,0.3,0.6s0.5-.23.52-0.55c0.24-3.52.49-7,.71-10.56a0.56,0.56,0,0,1,.75-0.63,17,17,0,0,0,2.07,0c0.43,0,.51.13,0.46,0.48-0.49,3.84-1,7.69-1.45,11.53-0.16,1.2-.19,1.2-1.56,1.2-2.86,0-5.72,0-8.58,0-0.47,0-.64-0.09-0.69-0.55q-0.7-5.94-1.49-11.88c-0.08-.58,0-0.88.78-0.8a13.47,13.47,0,0,0,1.91,0c0.38,0,.52.08,0.54,0.45,0.23,3.57.49,7.13,0.75,10.7,0,0.19-.11.44,0.14,0.55a1,1,0,0,0,.53,0c0.28,0,.14-0.26.13-0.39q-0.28-4.22-.57-8.44c-0.06-.82-0.11-1.65-0.19-2.47,0-.29,0-0.39.39-0.42,2-.16,2-0.17,2,1.63q0,5,0,10C61.59,352.32,61.64,352.35,61.74,352.33Z" transform="translate(-54.27 -337.68)" fill="url(#linear-gradient)"/><path d="M62,339.88c-2.3,0-4.59,0-6.88,0-0.63,0-.9-0.2-0.89-0.74s0.28-.75.91-0.73c1.4,0,2.8,0,4.21,0a0.58,0.58,0,0,0,.7-0.35,0.82,0.82,0,0,1,.89-0.4H63a0.86,0.86,0,0,1,1,.51c0.11,0.35.38,0.24,0.61,0.25,1.4,0,2.81,0,4.21,0,0.61,0,1,.09,1,0.72s-0.33.76-1,.75C66.59,339.86,64.32,339.88,62,339.88Z" transform="translate(-54.27 -337.68)" fill="url(#linear-gradient-2)"/><path d="M65.47,340.61a0.37,0.37,0,0,1-.13.05,0.34,0.34,0,0,1-.12-0.06A0.17,0.17,0,0,1,65.47,340.61Z" transform="translate(-54.27 -337.68)" fill="url(#linear-gradient-3)"/><path d="M61.74,352.33c-0.1,0-.15,0-0.11-0.11Z" transform="translate(-54.27 -337.68)" fill="url(#linear-gradient-4)"/></svg>